  0
SECTION
  2
BLOCKS
  0
ENDSEC
  0
SECTION
  2
ENTITIES
  0
LINE
  8
0
 10
-50.8
 20
0
 11
-50.7749
 21
-1.59566
  0
LINE
  8
0
 10
-50.7749
 20
-1.59566
 11
-50.6997
 21
-3.18975
  0
LINE
  8
0
 10
-50.6997
 20
-3.18975
 11
-50.5745
 21
-4.78069
  0
LINE
  8
0
 10
-50.5745
 20
-4.78069
 11
-50.3994
 21
-6.36691
  0
LINE
  8
0
 10
-50.3994
 20
-6.36691
 11
-50.1746
 21
-7.94685
  0
LINE
  8
0
 10
-50.1746
 20
-7.94685
 11
-49.9002
 21
-9.51897
  0
LINE
  8
0
 10
-49.9002
 20
-9.51897
 11
-49.5766
 21
-11.0817
  0
LINE
  8
0
 10
-49.5766
 20
-11.0817
 11
-49.204
 21
-12.6334
  0
LINE
  8
0
 10
-49.204
 20
-12.6334
 11
-48.7829
 21
-14.1727
  0
LINE
  8
0
 10
-48.7829
 20
-14.1727
 11
-48.3137
 21
-15.698
  0
LINE
  8
0
 10
-48.3137
 20
-15.698
 11
-47.7967
 21
-17.2078
  0
LINE
  8
0
 10
-47.7967
 20
-17.2078
 11
-47.7967
 21
-17.2078
  0
LINE
  8
0
 10
-47.7967
 20
-17.2078
 11
-47.7967
 21
-17.2078
  0
LINE
  8
0
 10
-47.7967
 20
-17.2078
 11
-47.7967
 21
-17.2079
  0
LINE
  8
0
 10
-47.7967
 20
-17.2079
 11
-47.7967
 21
-17.2079
  0
LINE
  8
0
 10
-47.7967
 20
-17.2079
 11
-47.7808
 21
-17.2499
  0
LINE
  8
0
 10
-47.7808
 20
-17.2499
 11
-47.2326
 21
-18.7007
  0
LINE
  8
0
 10
-47.2326
 20
-18.7007
 11
-46.6219
 21
-20.175
  0
LINE
  8
0
 10
-46.6219
 20
-20.175
 11
-46.6219
 21
-20.175
  0
LINE
  8
0
 10
-46.6219
 20
-20.175
 11
-46.6219
 21
-20.1751
  0
LINE
  8
0
 10
-46.6219
 20
-20.1751
 11
-46.6219
 21
-20.1751
  0
LINE
  8
0
 10
-46.6219
 20
-20.1751
 11
-46.6219
 21
-20.1751
  0
LINE
  8
0
 10
-46.6219
 20
-20.1751
 11
-46.6036
 21
-20.2156
  0
LINE
  8
0
 10
-46.6036
 20
-20.2156
 11
-45.9652
 21
-21.6296
  0
LINE
  8
0
 10
-45.9652
 20
-21.6296
 11
-45.2631
 21
-23.0627
  0
LINE
  8
0
 10
-45.2631
 20
-23.0627
 11
-44.5164
 21
-24.4731
  0
LINE
  8
0
 10
-44.5164
 20
-24.4731
 11
-43.7257
 21
-25.8593
  0
LINE
  8
0
 10
-43.7257
 20
-25.8593
 11
-42.8919
 21
-27.22
  0
LINE
  8
0
 10
-42.8919
 20
-27.22
 11
-42.8919
 21
-27.22
  0
LINE
  8
0
 10
-42.8919
 20
-27.22
 11
-42.8918
 21
-27.22
  0
LINE
  8
0
 10
-42.8918
 20
-27.22
 11
-42.8918
 21
-27.22
  0
LINE
  8
0
 10
-42.8918
 20
-27.22
 11
-42.8918
 21
-27.22
  0
LINE
  8
0
 10
-42.8918
 20
-27.22
 11
-42.8693
 21
-27.2544
  0
LINE
  8
0
 10
-42.8693
 20
-27.2544
 11
-42.0157
 21
-28.5538
  0
LINE
  8
0
 10
-42.0157
 20
-28.5538
 11
-41.098
 21
-29.8595
  0
LINE
  8
0
 10
-41.098
 20
-29.8595
 11
-40.1399
 21
-31.1357
  0
LINE
  8
0
 10
-40.1399
 20
-31.1357
 11
-39.1421
 21
-32.3811
  0
LINE
  8
0
 10
-39.1421
 20
-32.3811
 11
-39.1421
 21
-32.3811
  0
LINE
  8
0
 10
-39.1421
 20
-32.3811
 11
-39.1421
 21
-32.3811
  0
LINE
  8
0
 10
-39.1421
 20
-32.3811
 11
-39.142
 21
-32.3811
  0
LINE
  8
0
 10
-39.142
 20
-32.3811
 11
-39.142
 21
-32.3811
  0
LINE
  8
0
 10
-39.142
 20
-32.3811
 11
-39.1213
 21
-32.4054
  0
LINE
  8
0
 10
-39.1213
 20
-32.4054
 11
-38.1056
 21
-33.5946
  0
LINE
  8
0
 10
-38.1056
 20
-33.5946
 11
-37.0316
 21
-34.775
  0
LINE
  8
0
 10
-37.0316
 20
-34.775
 11
-35.921
 21
-35.921
  0
LINE
  8
0
 10
-35.921
 20
-35.921
 11
-34.775
 21
-37.0316
  0
LINE
  8
0
 10
-34.775
 20
-37.0316
 11
-33.5946
 21
-38.1056
  0
LINE
  8
0
 10
-33.5946
 20
-38.1056
 11
-32.3811
 21
-39.1421
  0
LINE
  8
0
 10
-32.3811
 20
-39.1421
 11
-32.3811
 21
-39.1421
  0
LINE
  8
0
 10
-32.3811
 20
-39.1421
 11
-32.3811
 21
-39.1421
  0
LINE
  8
0
 10
-32.3811
 20
-39.1421
 11
-32.3811
 21
-39.1421
  0
LINE
  8
0
 10
-32.3811
 20
-39.1421
 11
-32.3578
 21
-39.1608
  0
LINE
  8
0
 10
-32.3578
 20
-39.1608
 11
-31.1357
 21
-40.1399
  0
LINE
  8
0
 10
-31.1357
 20
-40.1399
 11
-29.8595
 21
-41.098
  0
LINE
  8
0
 10
-29.8595
 20
-41.098
 11
-28.5538
 21
-42.0157
  0
LINE
  8
0
 10
-28.5538
 20
-42.0157
 11
-27.22
 21
-42.8918
  0
LINE
  8
0
 10
-27.22
 20
-42.8918
 11
-25.8593
 21
-43.7257
  0
LINE
  8
0
 10
-25.8593
 20
-43.7257
 11
-24.4731
 21
-44.5164
  0
LINE
  8
0
 10
-24.4731
 20
-44.5164
 11
-23.0627
 21
-45.2631
  0
LINE
  8
0
 10
-23.0627
 20
-45.2631
 11
-21.6296
 21
-45.9652
  0
LINE
  8
0
 10
-21.6296
 20
-45.9652
 11
-20.1752
 21
-46.6218
  0
LINE
  8
0
 10
-20.1752
 20
-46.6218
 11
-20.1752
 21
-46.6219
  0
LINE
  8
0
 10
-20.1752
 20
-46.6219
 11
-20.1752
 21
-46.6219
  0
LINE
  8
0
 10
-20.1752
 20
-46.6219
 11
-20.1751
 21
-46.6219
  0
LINE
  8
0
 10
-20.1751
 20
-46.6219
 11
-20.1751
 21
-46.6219
  0
LINE
  8
0
 10
-20.1751
 20
-46.6219
 11
-20.1341
 21
-46.6389
  0
LINE
  8
0
 10
-20.1341
 20
-46.6389
 11
-18.7007
 21
-47.2326
  0
LINE
  8
0
 10
-18.7007
 20
-47.2326
 11
-17.208
 21
-47.7967
  0
LINE
  8
0
 10
-17.208
 20
-47.7967
 11
-17.2079
 21
-47.7967
  0
LINE
  8
0
 10
-17.2079
 20
-47.7967
 11
-17.2079
 21
-47.7967
  0
LINE
  8
0
 10
-17.2079
 20
-47.7967
 11
-17.2079
 21
-47.7967
  0
LINE
  8
0
 10
-17.2079
 20
-47.7967
 11
-15.698
 21
-48.3137
  0
LINE
  8
0
 10
-15.698
 20
-48.3137
 11
-14.1727
 21
-48.7829
  0
LINE
  8
0
 10
-14.1727
 20
-48.7829
 11
-12.6334
 21
-49.204
  0
LINE
  8
0
 10
-12.6334
 20
-49.204
 11
-11.0817
 21
-49.5766
  0
LINE
  8
0
 10
-11.0817
 20
-49.5766
 11
-9.51897
 21
-49.9002
  0
LINE
  8
0
 10
-9.51897
 20
-49.9002
 11
-7.94685
 21
-50.1746
  0
LINE
  8
0
 10
-7.94685
 20
-50.1746
 11
-6.36691
 21
-50.3994
  0
LINE
  8
0
 10
-6.36691
 20
-50.3994
 11
-4.78069
 21
-50.5745
  0
LINE
  8
0
 10
-4.78069
 20
-50.5745
 11
-3.18975
 21
-50.6997
  0
LINE
  8
0
 10
-3.18975
 20
-50.6997
 11
-1.59566
 21
-50.7749
  0
LINE
  8
0
 10
-1.59566
 20
-50.7749
 11
0
 21
-50.8
  0
LINE
  8
0
 10
0
 20
-50.8
 11
1.59566
 21
-50.7749
  0
LINE
  8
0
 10
1.59566
 20
-50.7749
 11
3.18975
 21
-50.6997
  0
LINE
  8
0
 10
3.18975
 20
-50.6997
 11
4.78069
 21
-50.5745
  0
LINE
  8
0
 10
4.78069
 20
-50.5745
 11
6.36691
 21
-50.3994
  0
LINE
  8
0
 10
6.36691
 20
-50.3994
 11
7.94685
 21
-50.1746
  0
LINE
  8
0
 10
7.94685
 20
-50.1746
 11
9.51897
 21
-49.9002
  0
LINE
  8
0
 10
9.51897
 20
-49.9002
 11
11.0817
 21
-49.5766
  0
LINE
  8
0
 10
11.0817
 20
-49.5766
 11
12.6334
 21
-49.204
  0
LINE
  8
0
 10
12.6334
 20
-49.204
 11
14.1727
 21
-48.7829
  0
LINE
  8
0
 10
14.1727
 20
-48.7829
 11
15.698
 21
-48.3137
  0
LINE
  8
0
 10
15.698
 20
-48.3137
 11
17.2079
 21
-47.7967
  0
LINE
  8
0
 10
17.2079
 20
-47.7967
 11
17.2079
 21
-47.7967
  0
LINE
  8
0
 10
17.2079
 20
-47.7967
 11
17.2079
 21
-47.7967
  0
LINE
  8
0
 10
17.2079
 20
-47.7967
 11
17.2079
 21
-47.7967
  0
LINE
  8
0
 10
17.2079
 20
-47.7967
 11
17.2499
 21
-47.7808
  0
LINE
  8
0
 10
17.2499
 20
-47.7808
 11
18.7007
 21
-47.2326
  0
LINE
  8
0
 10
18.7007
 20
-47.2326
 11
20.1751
 21
-46.6219
  0
LINE
  8
0
 10
20.1751
 20
-46.6219
 11
20.1751
 21
-46.6219
  0
LINE
  8
0
 10
20.1751
 20
-46.6219
 11
20.1751
 21
-46.6219
  0
LINE
  8
0
 10
20.1751
 20
-46.6219
 11
20.1752
 21
-46.6219
  0
LINE
  8
0
 10
20.1752
 20
-46.6219
 11
20.1752
 21
-46.6219
  0
LINE
  8
0
 10
20.1752
 20
-46.6219
 11
20.2157
 21
-46.6036
  0
LINE
  8
0
 10
20.2157
 20
-46.6036
 11
21.6296
 21
-45.9652
  0
LINE
  8
0
 10
21.6296
 20
-45.9652
 11
23.0627
 21
-45.2631
  0
LINE
  8
0
 10
23.0627
 20
-45.2631
 11
24.4731
 21
-44.5164
  0
LINE
  8
0
 10
24.4731
 20
-44.5164
 11
25.8593
 21
-43.7257
  0
LINE
  8
0
 10
25.8593
 20
-43.7257
 11
27.22
 21
-42.8918
  0
LINE
  8
0
 10
27.22
 20
-42.8918
 11
27.2543
 21
-42.8693
  0
LINE
  8
0
 10
27.2543
 20
-42.8693
 11
28.5538
 21
-42.0157
  0
LINE
  8
0
 10
28.5538
 20
-42.0157
 11
29.8595
 21
-41.098
  0
LINE
  8
0
 10
29.8595
 20
-41.098
 11
31.1357
 21
-40.1399
  0
LINE
  8
0
 10
31.1357
 20
-40.1399
 11
32.381
 21
-39.1421
  0
LINE
  8
0
 10
32.381
 20
-39.1421
 11
32.3811
 21
-39.1421
  0
LINE
  8
0
 10
32.3811
 20
-39.1421
 11
32.3811
 21
-39.1421
  0
LINE
  8
0
 10
32.3811
 20
-39.1421
 11
32.3811
 21
-39.1421
  0
LINE
  8
0
 10
32.3811
 20
-39.1421
 11
32.4053
 21
-39.1214
  0
LINE
  8
0
 10
32.4053
 20
-39.1214
 11
33.5946
 21
-38.1056
  0
LINE
  8
0
 10
33.5946
 20
-38.1056
 11
34.775
 21
-37.0316
  0
LINE
  8
0
 10
34.775
 20
-37.0316
 11
35.921
 21
-35.921
  0
LINE
  8
0
 10
35.921
 20
-35.921
 11
37.0316
 21
-34.775
  0
LINE
  8
0
 10
37.0316
 20
-34.775
 11
38.1056
 21
-33.5946
  0
LINE
  8
0
 10
38.1056
 20
-33.5946
 11
39.142
 21
-32.3812
  0
LINE
  8
0
 10
39.142
 20
-32.3812
 11
39.142
 21
-32.3811
  0
LINE
  8
0
 10
39.142
 20
-32.3811
 11
39.1421
 21
-32.3811
  0
LINE
  8
0
 10
39.1421
 20
-32.3811
 11
39.1421
 21
-32.3811
  0
LINE
  8
0
 10
39.1421
 20
-32.3811
 11
39.1421
 21
-32.3811
  0
LINE
  8
0
 10
39.1421
 20
-32.3811
 11
39.1607
 21
-32.3578
  0
LINE
  8
0
 10
39.1607
 20
-32.3578
 11
40.1399
 21
-31.1357
  0
LINE
  8
0
 10
40.1399
 20
-31.1357
 11
41.098
 21
-29.8595
  0
LINE
  8
0
 10
41.098
 20
-29.8595
 11
42.0157
 21
-28.5538
  0
LINE
  8
0
 10
42.0157
 20
-28.5538
 11
42.8918
 21
-27.22
  0
LINE
  8
0
 10
42.8918
 20
-27.22
 11
42.8918
 21
-27.22
  0
LINE
  8
0
 10
42.8918
 20
-27.22
 11
42.8918
 21
-27.22
  0
LINE
  8
0
 10
42.8918
 20
-27.22
 11
42.8918
 21
-27.22
  0
LINE
  8
0
 10
42.8918
 20
-27.22
 11
43.7257
 21
-25.8593
  0
LINE
  8
0
 10
43.7257
 20
-25.8593
 11
44.5164
 21
-24.4731
  0
LINE
  8
0
 10
44.5164
 20
-24.4731
 11
45.2631
 21
-23.0627
  0
LINE
  8
0
 10
45.2631
 20
-23.0627
 11
45.9652
 21
-21.6296
  0
LINE
  8
0
 10
45.9652
 20
-21.6296
 11
46.6219
 21
-20.1751
  0
LINE
  8
0
 10
46.6219
 20
-20.1751
 11
46.6219
 21
-20.1751
  0
LINE
  8
0
 10
46.6219
 20
-20.1751
 11
46.6219
 21
-20.1751
  0
LINE
  8
0
 10
46.6219
 20
-20.1751
 11
46.6219
 21
-20.1751
  0
LINE
  8
0
 10
46.6219
 20
-20.1751
 11
46.6219
 21
-20.1751
  0
LINE
  8
0
 10
46.6219
 20
-20.1751
 11
46.6389
 21
-20.1341
  0
LINE
  8
0
 10
46.6389
 20
-20.1341
 11
47.2326
 21
-18.7007
  0
LINE
  8
0
 10
47.2326
 20
-18.7007
 11
47.7967
 21
-17.2079
  0
LINE
  8
0
 10
47.7967
 20
-17.2079
 11
47.7967
 21
-17.2079
  0
LINE
  8
0
 10
47.7967
 20
-17.2079
 11
47.7967
 21
-17.2078
  0
LINE
  8
0
 10
47.7967
 20
-17.2078
 11
47.7967
 21
-17.2078
  0
LINE
  8
0
 10
47.7967
 20
-17.2078
 11
47.7967
 21
-17.2078
  0
LINE
  8
0
 10
47.7967
 20
-17.2078
 11
48.3137
 21
-15.698
  0
LINE
  8
0
 10
48.3137
 20
-15.698
 11
48.7829
 21
-14.1727
  0
LINE
  8
0
 10
48.7829
 20
-14.1727
 11
49.204
 21
-12.6334
  0
LINE
  8
0
 10
49.204
 20
-12.6334
 11
49.5766
 21
-11.0817
  0
LINE
  8
0
 10
49.5766
 20
-11.0817
 11
49.9002
 21
-9.51897
  0
LINE
  8
0
 10
49.9002
 20
-9.51897
 11
50.1746
 21
-7.94685
  0
LINE
  8
0
 10
50.1746
 20
-7.94685
 11
50.3994
 21
-6.36691
  0
LINE
  8
0
 10
50.3994
 20
-6.36691
 11
50.5745
 21
-4.78069
  0
LINE
  8
0
 10
50.5745
 20
-4.78069
 11
50.6997
 21
-3.18975
  0
LINE
  8
0
 10
50.6997
 20
-3.18975
 11
50.7749
 21
-1.59566
  0
LINE
  8
0
 10
50.7749
 20
-1.59566
 11
50.8
 21
0
  0
LINE
  8
0
 10
50.8
 20
0
 11
50.7749
 21
1.59566
  0
LINE
  8
0
 10
50.7749
 20
1.59566
 11
50.6997
 21
3.18975
  0
LINE
  8
0
 10
50.6997
 20
3.18975
 11
50.5745
 21
4.78069
  0
LINE
  8
0
 10
50.5745
 20
4.78069
 11
50.3994
 21
6.36691
  0
LINE
  8
0
 10
50.3994
 20
6.36691
 11
50.1746
 21
7.94685
  0
LINE
  8
0
 10
50.1746
 20
7.94685
 11
49.9002
 21
9.51897
  0
LINE
  8
0
 10
49.9002
 20
9.51897
 11
49.5766
 21
11.0817
  0
LINE
  8
0
 10
49.5766
 20
11.0817
 11
49.204
 21
12.6334
  0
LINE
  8
0
 10
49.204
 20
12.6334
 11
48.7829
 21
14.1727
  0
LINE
  8
0
 10
48.7829
 20
14.1727
 11
48.3137
 21
15.698
  0
LINE
  8
0
 10
48.3137
 20
15.698
 11
47.7967
 21
17.2078
  0
LINE
  8
0
 10
47.7967
 20
17.2078
 11
47.7967
 21
17.2078
  0
LINE
  8
0
 10
47.7967
 20
17.2078
 11
47.7967
 21
17.2078
  0
LINE
  8
0
 10
47.7967
 20
17.2078
 11
47.7967
 21
17.2079
  0
LINE
  8
0
 10
47.7967
 20
17.2079
 11
47.7967
 21
17.2079
  0
LINE
  8
0
 10
47.7967
 20
17.2079
 11
47.7808
 21
17.2499
  0
LINE
  8
0
 10
47.7808
 20
17.2499
 11
47.2326
 21
18.7007
  0
LINE
  8
0
 10
47.2326
 20
18.7007
 11
46.6219
 21
20.175
  0
LINE
  8
0
 10
46.6219
 20
20.175
 11
46.6219
 21
20.175
  0
LINE
  8
0
 10
46.6219
 20
20.175
 11
46.6219
 21
20.1751
  0
LINE
  8
0
 10
46.6219
 20
20.1751
 11
46.6219
 21
20.1751
  0
LINE
  8
0
 10
46.6219
 20
20.1751
 11
46.6219
 21
20.1751
  0
LINE
  8
0
 10
46.6219
 20
20.1751
 11
46.6036
 21
20.2156
  0
LINE
  8
0
 10
46.6036
 20
20.2156
 11
45.9652
 21
21.6296
  0
LINE
  8
0
 10
45.9652
 20
21.6296
 11
45.2631
 21
23.0627
  0
LINE
  8
0
 10
45.2631
 20
23.0627
 11
44.5164
 21
24.4731
  0
LINE
  8
0
 10
44.5164
 20
24.4731
 11
43.7257
 21
25.8593
  0
LINE
  8
0
 10
43.7257
 20
25.8593
 11
42.8919
 21
27.22
  0
LINE
  8
0
 10
42.8919
 20
27.22
 11
42.8919
 21
27.22
  0
LINE
  8
0
 10
42.8919
 20
27.22
 11
42.8918
 21
27.22
  0
LINE
  8
0
 10
42.8918
 20
27.22
 11
42.8918
 21
27.22
  0
LINE
  8
0
 10
42.8918
 20
27.22
 11
42.8918
 21
27.22
  0
LINE
  8
0
 10
42.8918
 20
27.22
 11
42.8693
 21
27.2544
  0
LINE
  8
0
 10
42.8693
 20
27.2544
 11
42.0157
 21
28.5538
  0
LINE
  8
0
 10
42.0157
 20
28.5538
 11
41.098
 21
29.8595
  0
LINE
  8
0
 10
41.098
 20
29.8595
 11
40.1399
 21
31.1357
  0
LINE
  8
0
 10
40.1399
 20
31.1357
 11
39.1421
 21
32.3811
  0
LINE
  8
0
 10
39.1421
 20
32.3811
 11
39.1421
 21
32.3811
  0
LINE
  8
0
 10
39.1421
 20
32.3811
 11
39.1421
 21
32.3811
  0
LINE
  8
0
 10
39.1421
 20
32.3811
 11
39.142
 21
32.3811
  0
LINE
  8
0
 10
39.142
 20
32.3811
 11
39.142
 21
32.3811
  0
LINE
  8
0
 10
39.142
 20
32.3811
 11
39.1213
 21
32.4054
  0
LINE
  8
0
 10
39.1213
 20
32.4054
 11
38.1056
 21
33.5946
  0
LINE
  8
0
 10
38.1056
 20
33.5946
 11
37.0316
 21
34.775
  0
LINE
  8
0
 10
37.0316
 20
34.775
 11
35.921
 21
35.921
  0
LINE
  8
0
 10
35.921
 20
35.921
 11
34.775
 21
37.0316
  0
LINE
  8
0
 10
34.775
 20
37.0316
 11
33.5946
 21
38.1056
  0
LINE
  8
0
 10
33.5946
 20
38.1056
 11
32.3811
 21
39.1421
  0
LINE
  8
0
 10
32.3811
 20
39.1421
 11
32.3811
 21
39.1421
  0
LINE
  8
0
 10
32.3811
 20
39.1421
 11
32.3811
 21
39.1421
  0
LINE
  8
0
 10
32.3811
 20
39.1421
 11
32.3811
 21
39.1421
  0
LINE
  8
0
 10
32.3811
 20
39.1421
 11
32.3578
 21
39.1608
  0
LINE
  8
0
 10
32.3578
 20
39.1608
 11
31.1357
 21
40.1399
  0
LINE
  8
0
 10
31.1357
 20
40.1399
 11
29.8595
 21
41.098
  0
LINE
  8
0
 10
29.8595
 20
41.098
 11
28.5538
 21
42.0157
  0
LINE
  8
0
 10
28.5538
 20
42.0157
 11
27.22
 21
42.8918
  0
LINE
  8
0
 10
27.22
 20
42.8918
 11
25.8593
 21
43.7257
  0
LINE
  8
0
 10
25.8593
 20
43.7257
 11
24.4731
 21
44.5164
  0
LINE
  8
0
 10
24.4731
 20
44.5164
 11
23.0627
 21
45.2631
  0
LINE
  8
0
 10
23.0627
 20
45.2631
 11
21.6296
 21
45.9652
  0
LINE
  8
0
 10
21.6296
 20
45.9652
 11
20.1752
 21
46.6218
  0
LINE
  8
0
 10
20.1752
 20
46.6218
 11
20.1752
 21
46.6219
  0
LINE
  8
0
 10
20.1752
 20
46.6219
 11
20.1752
 21
46.6219
  0
LINE
  8
0
 10
20.1752
 20
46.6219
 11
20.1751
 21
46.6219
  0
LINE
  8
0
 10
20.1751
 20
46.6219
 11
20.1751
 21
46.6219
  0
LINE
  8
0
 10
20.1751
 20
46.6219
 11
20.1341
 21
46.6389
  0
LINE
  8
0
 10
20.1341
 20
46.6389
 11
18.7007
 21
47.2326
  0
LINE
  8
0
 10
18.7007
 20
47.2326
 11
17.208
 21
47.7967
  0
LINE
  8
0
 10
17.208
 20
47.7967
 11
17.2079
 21
47.7967
  0
LINE
  8
0
 10
17.2079
 20
47.7967
 11
17.2079
 21
47.7967
  0
LINE
  8
0
 10
17.2079
 20
47.7967
 11
17.2079
 21
47.7967
  0
LINE
  8
0
 10
17.2079
 20
47.7967
 11
15.698
 21
48.3137
  0
LINE
  8
0
 10
15.698
 20
48.3137
 11
14.1727
 21
48.7829
  0
LINE
  8
0
 10
14.1727
 20
48.7829
 11
12.6334
 21
49.204
  0
LINE
  8
0
 10
12.6334
 20
49.204
 11
11.0817
 21
49.5766
  0
LINE
  8
0
 10
11.0817
 20
49.5766
 11
9.51897
 21
49.9002
  0
LINE
  8
0
 10
9.51897
 20
49.9002
 11
7.94685
 21
50.1746
  0
LINE
  8
0
 10
7.94685
 20
50.1746
 11
6.36691
 21
50.3994
  0
LINE
  8
0
 10
6.36691
 20
50.3994
 11
4.78069
 21
50.5745
  0
LINE
  8
0
 10
4.78069
 20
50.5745
 11
3.18975
 21
50.6997
  0
LINE
  8
0
 10
3.18975
 20
50.6997
 11
1.59566
 21
50.7749
  0
LINE
  8
0
 10
1.59566
 20
50.7749
 11
0
 21
50.8
  0
LINE
  8
0
 10
0
 20
50.8
 11
-1.59566
 21
50.7749
  0
LINE
  8
0
 10
-1.59566
 20
50.7749
 11
-3.18975
 21
50.6997
  0
LINE
  8
0
 10
-3.18975
 20
50.6997
 11
-4.78069
 21
50.5745
  0
LINE
  8
0
 10
-4.78069
 20
50.5745
 11
-6.36691
 21
50.3994
  0
LINE
  8
0
 10
-6.36691
 20
50.3994
 11
-7.94685
 21
50.1746
  0
LINE
  8
0
 10
-7.94685
 20
50.1746
 11
-9.51897
 21
49.9002
  0
LINE
  8
0
 10
-9.51897
 20
49.9002
 11
-11.0817
 21
49.5766
  0
LINE
  8
0
 10
-11.0817
 20
49.5766
 11
-12.6334
 21
49.204
  0
LINE
  8
0
 10
-12.6334
 20
49.204
 11
-14.1727
 21
48.7829
  0
LINE
  8
0
 10
-14.1727
 20
48.7829
 11
-15.698
 21
48.3137
  0
LINE
  8
0
 10
-15.698
 20
48.3137
 11
-17.2079
 21
47.7967
  0
LINE
  8
0
 10
-17.2079
 20
47.7967
 11
-17.2079
 21
47.7967
  0
LINE
  8
0
 10
-17.2079
 20
47.7967
 11
-17.2079
 21
47.7967
  0
LINE
  8
0
 10
-17.2079
 20
47.7967
 11
-17.2079
 21
47.7967
  0
LINE
  8
0
 10
-17.2079
 20
47.7967
 11
-17.2499
 21
47.7808
  0
LINE
  8
0
 10
-17.2499
 20
47.7808
 11
-18.7007
 21
47.2326
  0
LINE
  8
0
 10
-18.7007
 20
47.2326
 11
-20.1751
 21
46.6219
  0
LINE
  8
0
 10
-20.1751
 20
46.6219
 11
-20.1751
 21
46.6219
  0
LINE
  8
0
 10
-20.1751
 20
46.6219
 11
-20.1751
 21
46.6219
  0
LINE
  8
0
 10
-20.1751
 20
46.6219
 11
-20.1752
 21
46.6219
  0
LINE
  8
0
 10
-20.1752
 20
46.6219
 11
-20.1752
 21
46.6219
  0
LINE
  8
0
 10
-20.1752
 20
46.6219
 11
-20.2157
 21
46.6036
  0
LINE
  8
0
 10
-20.2157
 20
46.6036
 11
-21.6296
 21
45.9652
  0
LINE
  8
0
 10
-21.6296
 20
45.9652
 11
-23.0627
 21
45.2631
  0
LINE
  8
0
 10
-23.0627
 20
45.2631
 11
-24.4731
 21
44.5164
  0
LINE
  8
0
 10
-24.4731
 20
44.5164
 11
-25.8593
 21
43.7257
  0
LINE
  8
0
 10
-25.8593
 20
43.7257
 11
-27.22
 21
42.8918
  0
LINE
  8
0
 10
-27.22
 20
42.8918
 11
-27.2543
 21
42.8693
  0
LINE
  8
0
 10
-27.2543
 20
42.8693
 11
-28.5538
 21
42.0157
  0
LINE
  8
0
 10
-28.5538
 20
42.0157
 11
-29.8595
 21
41.098
  0
LINE
  8
0
 10
-29.8595
 20
41.098
 11
-31.1357
 21
40.1399
  0
LINE
  8
0
 10
-31.1357
 20
40.1399
 11
-32.381
 21
39.1421
  0
LINE
  8
0
 10
-32.381
 20
39.1421
 11
-32.3811
 21
39.1421
  0
LINE
  8
0
 10
-32.3811
 20
39.1421
 11
-32.3811
 21
39.1421
  0
LINE
  8
0
 10
-32.3811
 20
39.1421
 11
-32.3811
 21
39.1421
  0
LINE
  8
0
 10
-32.3811
 20
39.1421
 11
-32.4053
 21
39.1214
  0
LINE
  8
0
 10
-32.4053
 20
39.1214
 11
-33.5946
 21
38.1056
  0
LINE
  8
0
 10
-33.5946
 20
38.1056
 11
-34.775
 21
37.0316
  0
LINE
  8
0
 10
-34.775
 20
37.0316
 11
-35.921
 21
35.921
  0
LINE
  8
0
 10
-35.921
 20
35.921
 11
-37.0316
 21
34.775
  0
LINE
  8
0
 10
-37.0316
 20
34.775
 11
-38.1056
 21
33.5946
  0
LINE
  8
0
 10
-38.1056
 20
33.5946
 11
-39.142
 21
32.3812
  0
LINE
  8
0
 10
-39.142
 20
32.3812
 11
-39.142
 21
32.3811
  0
LINE
  8
0
 10
-39.142
 20
32.3811
 11
-39.1421
 21
32.3811
  0
LINE
  8
0
 10
-39.1421
 20
32.3811
 11
-39.1421
 21
32.3811
  0
LINE
  8
0
 10
-39.1421
 20
32.3811
 11
-39.1421
 21
32.3811
  0
LINE
  8
0
 10
-39.1421
 20
32.3811
 11
-39.1607
 21
32.3578
  0
LINE
  8
0
 10
-39.1607
 20
32.3578
 11
-40.1399
 21
31.1357
  0
LINE
  8
0
 10
-40.1399
 20
31.1357
 11
-41.098
 21
29.8595
  0
LINE
  8
0
 10
-41.098
 20
29.8595
 11
-42.0157
 21
28.5538
  0
LINE
  8
0
 10
-42.0157
 20
28.5538
 11
-42.8918
 21
27.22
  0
LINE
  8
0
 10
-42.8918
 20
27.22
 11
-42.8918
 21
27.22
  0
LINE
  8
0
 10
-42.8918
 20
27.22
 11
-42.8918
 21
27.22
  0
LINE
  8
0
 10
-42.8918
 20
27.22
 11
-42.8918
 21
27.22
  0
LINE
  8
0
 10
-42.8918
 20
27.22
 11
-43.7257
 21
25.8593
  0
LINE
  8
0
 10
-43.7257
 20
25.8593
 11
-44.5164
 21
24.4731
  0
LINE
  8
0
 10
-44.5164
 20
24.4731
 11
-45.2631
 21
23.0627
  0
LINE
  8
0
 10
-45.2631
 20
23.0627
 11
-45.9652
 21
21.6296
  0
LINE
  8
0
 10
-45.9652
 20
21.6296
 11
-46.6219
 21
20.1751
  0
LINE
  8
0
 10
-46.6219
 20
20.1751
 11
-46.6219
 21
20.1751
  0
LINE
  8
0
 10
-46.6219
 20
20.1751
 11
-46.6219
 21
20.1751
  0
LINE
  8
0
 10
-46.6219
 20
20.1751
 11
-46.6219
 21
20.1751
  0
LINE
  8
0
 10
-46.6219
 20
20.1751
 11
-46.6219
 21
20.1751
  0
LINE
  8
0
 10
-46.6219
 20
20.1751
 11
-46.6389
 21
20.1341
  0
LINE
  8
0
 10
-46.6389
 20
20.1341
 11
-47.2326
 21
18.7007
  0
LINE
  8
0
 10
-47.2326
 20
18.7007
 11
-47.7967
 21
17.2079
  0
LINE
  8
0
 10
-47.7967
 20
17.2079
 11
-47.7967
 21
17.2079
  0
LINE
  8
0
 10
-47.7967
 20
17.2079
 11
-47.7967
 21
17.2078
  0
LINE
  8
0
 10
-47.7967
 20
17.2078
 11
-47.7967
 21
17.2078
  0
LINE
  8
0
 10
-47.7967
 20
17.2078
 11
-47.7967
 21
17.2078
  0
LINE
  8
0
 10
-47.7967
 20
17.2078
 11
-48.3137
 21
15.698
  0
LINE
  8
0
 10
-48.3137
 20
15.698
 11
-48.7829
 21
14.1727
  0
LINE
  8
0
 10
-48.7829
 20
14.1727
 11
-49.204
 21
12.6334
  0
LINE
  8
0
 10
-49.204
 20
12.6334
 11
-49.5766
 21
11.0817
  0
LINE
  8
0
 10
-49.5766
 20
11.0817
 11
-49.9002
 21
9.51897
  0
LINE
  8
0
 10
-49.9002
 20
9.51897
 11
-50.1746
 21
7.94685
  0
LINE
  8
0
 10
-50.1746
 20
7.94685
 11
-50.3994
 21
6.36691
  0
LINE
  8
0
 10
-50.3994
 20
6.36691
 11
-50.5745
 21
4.78069
  0
LINE
  8
0
 10
-50.5745
 20
4.78069
 11
-50.6997
 21
3.18975
  0
LINE
  8
0
 10
-50.6997
 20
3.18975
 11
-50.7749
 21
1.59566
  0
LINE
  8
0
 10
-50.7749
 20
1.59566
 11
-50.8
 21
0
  0
LINE
  8
0
 10
-41.4845
 20
0
 11
-41.4138
 21
1.34888
  0
LINE
  8
0
 10
-41.4138
 20
1.34888
 11
-41.2025
 21
2.68298
  0
LINE
  8
0
 10
-41.2025
 20
2.68298
 11
-40.853
 21
3.98769
  0
LINE
  8
0
 10
-40.853
 20
3.98769
 11
-40.3689
 21
5.24871
  0
LINE
  8
0
 10
-40.3689
 20
5.24871
 11
-39.7557
 21
6.45222
  0
LINE
  8
0
 10
-39.7557
 20
6.45222
 11
-39.02
 21
7.58505
  0
LINE
  8
0
 10
-39.02
 20
7.58505
 11
-38.17
 21
8.63477
  0
LINE
  8
0
 10
-38.17
 20
8.63477
 11
-37.2149
 21
9.58987
  0
LINE
  8
0
 10
-37.2149
 20
9.58987
 11
-36.1651
 21
10.4399
  0
LINE
  8
0
 10
-36.1651
 20
10.4399
 11
-35.0323
 21
11.1756
  0
LINE
  8
0
 10
-35.0323
 20
11.1756
 11
-33.8288
 21
11.7888
  0
LINE
  8
0
 10
-33.8288
 20
11.7888
 11
-32.5678
 21
12.2729
  0
LINE
  8
0
 10
-32.5678
 20
12.2729
 11
-31.2631
 21
12.6225
  0
LINE
  8
0
 10
-31.2631
 20
12.6225
 11
-29.929
 21
12.8338
  0
LINE
  8
0
 10
-29.929
 20
12.8338
 11
-28.5801
 21
12.9045
  0
LINE
  8
0
 10
-28.5801
 20
12.9045
 11
-27.2312
 21
12.8338
  0
LINE
  8
0
 10
-27.2312
 20
12.8338
 11
-25.8971
 21
12.6225
  0
LINE
  8
0
 10
-25.8971
 20
12.6225
 11
-24.5924
 21
12.2729
  0
LINE
  8
0
 10
-24.5924
 20
12.2729
 11
-23.3314
 21
11.7888
  0
LINE
  8
0
 10
-23.3314
 20
11.7888
 11
-22.1278
 21
11.1756
  0
LINE
  8
0
 10
-22.1278
 20
11.1756
 11
-20.995
 21
10.4399
  0
LINE
  8
0
 10
-20.995
 20
10.4399
 11
-19.9453
 21
9.58987
  0
LINE
  8
0
 10
-19.9453
 20
9.58987
 11
-18.9902
 21
8.63477
  0
LINE
  8
0
 10
-18.9902
 20
8.63477
 11
-18.1401
 21
7.58505
  0
LINE
  8
0
 10
-18.1401
 20
7.58505
 11
-17.4045
 21
6.45222
  0
LINE
  8
0
 10
-17.4045
 20
6.45222
 11
-16.7912
 21
5.24871
  0
LINE
  8
0
 10
-16.7912
 20
5.24871
 11
-16.3072
 21
3.98769
  0
LINE
  8
0
 10
-16.3072
 20
3.98769
 11
-15.9576
 21
2.68298
  0
LINE
  8
0
 10
-15.9576
 20
2.68298
 11
-15.7463
 21
1.34888
  0
LINE
  8
0
 10
-15.7463
 20
1.34888
 11
-15.6756
 21
0
  0
LINE
  8
0
 10
-15.6756
 20
0
 11
-15.7463
 21
-1.34888
  0
LINE
  8
0
 10
-15.7463
 20
-1.34888
 11
-15.9576
 21
-2.68298
  0
LINE
  8
0
 10
-15.9576
 20
-2.68298
 11
-16.3072
 21
-3.98769
  0
LINE
  8
0
 10
-16.3072
 20
-3.98769
 11
-16.7912
 21
-5.24871
  0
LINE
  8
0
 10
-16.7912
 20
-5.24871
 11
-17.4045
 21
-6.45222
  0
LINE
  8
0
 10
-17.4045
 20
-6.45222
 11
-18.1401
 21
-7.58505
  0
LINE
  8
0
 10
-18.1401
 20
-7.58505
 11
-18.9902
 21
-8.63477
  0
LINE
  8
0
 10
-18.9902
 20
-8.63477
 11
-19.9453
 21
-9.58987
  0
LINE
  8
0
 10
-19.9453
 20
-9.58987
 11
-20.995
 21
-10.4399
  0
LINE
  8
0
 10
-20.995
 20
-10.4399
 11
-22.1278
 21
-11.1756
  0
LINE
  8
0
 10
-22.1278
 20
-11.1756
 11
-23.3314
 21
-11.7888
  0
LINE
  8
0
 10
-23.3314
 20
-11.7888
 11
-24.5924
 21
-12.2729
  0
LINE
  8
0
 10
-24.5924
 20
-12.2729
 11
-25.8971
 21
-12.6225
  0
LINE
  8
0
 10
-25.8971
 20
-12.6225
 11
-27.2312
 21
-12.8338
  0
LINE
  8
0
 10
-27.2312
 20
-12.8338
 11
-28.5801
 21
-12.9045
  0
LINE
  8
0
 10
-28.5801
 20
-12.9045
 11
-29.929
 21
-12.8338
  0
LINE
  8
0
 10
-29.929
 20
-12.8338
 11
-31.2631
 21
-12.6225
  0
LINE
  8
0
 10
-31.2631
 20
-12.6225
 11
-32.5678
 21
-12.2729
  0
LINE
  8
0
 10
-32.5678
 20
-12.2729
 11
-33.8288
 21
-11.7888
  0
LINE
  8
0
 10
-33.8288
 20
-11.7888
 11
-35.0323
 21
-11.1756
  0
LINE
  8
0
 10
-35.0323
 20
-11.1756
 11
-36.1651
 21
-10.4399
  0
LINE
  8
0
 10
-36.1651
 20
-10.4399
 11
-37.2149
 21
-9.58987
  0
LINE
  8
0
 10
-37.2149
 20
-9.58987
 11
-38.17
 21
-8.63477
  0
LINE
  8
0
 10
-38.17
 20
-8.63477
 11
-39.02
 21
-7.58505
  0
LINE
  8
0
 10
-39.02
 20
-7.58505
 11
-39.7557
 21
-6.45222
  0
LINE
  8
0
 10
-39.7557
 20
-6.45222
 11
-40.3689
 21
-5.24871
  0
LINE
  8
0
 10
-40.3689
 20
-5.24871
 11
-40.853
 21
-3.98769
  0
LINE
  8
0
 10
-40.853
 20
-3.98769
 11
-41.2025
 21
-2.68298
  0
LINE
  8
0
 10
-41.2025
 20
-2.68298
 11
-41.4138
 21
-1.34888
  0
LINE
  8
0
 10
-41.4138
 20
-1.34888
 11
-41.4845
 21
0
  0
LINE
  8
0
 10
-27.1945
 20
-24.7511
 11
-27.1238
 21
-23.4022
  0
LINE
  8
0
 10
-27.1238
 20
-23.4022
 11
-26.9125
 21
-22.0681
  0
LINE
  8
0
 10
-26.9125
 20
-22.0681
 11
-26.5629
 21
-20.7634
  0
LINE
  8
0
 10
-26.5629
 20
-20.7634
 11
-26.0789
 21
-19.5023
  0
LINE
  8
0
 10
-26.0789
 20
-19.5023
 11
-25.4656
 21
-18.2988
  0
LINE
  8
0
 10
-25.4656
 20
-18.2988
 11
-24.73
 21
-17.166
  0
LINE
  8
0
 10
-24.73
 20
-17.166
 11
-23.8799
 21
-16.1163
  0
LINE
  8
0
 10
-23.8799
 20
-16.1163
 11
-22.9248
 21
-15.1612
  0
LINE
  8
0
 10
-22.9248
 20
-15.1612
 11
-21.8751
 21
-14.3111
  0
LINE
  8
0
 10
-21.8751
 20
-14.3111
 11
-20.7423
 21
-13.5755
  0
LINE
  8
0
 10
-20.7423
 20
-13.5755
 11
-19.5388
 21
-12.9622
  0
LINE
  8
0
 10
-19.5388
 20
-12.9622
 11
-18.2777
 21
-12.4782
  0
LINE
  8
0
 10
-18.2777
 20
-12.4782
 11
-16.973
 21
-12.1286
  0
LINE
  8
0
 10
-16.973
 20
-12.1286
 11
-15.6389
 21
-11.9173
  0
LINE
  8
0
 10
-15.6389
 20
-11.9173
 11
-14.29
 21
-11.8466
  0
LINE
  8
0
 10
-14.29
 20
-11.8466
 11
-12.9411
 21
-11.9173
  0
LINE
  8
0
 10
-12.9411
 20
-11.9173
 11
-11.607
 21
-12.1286
  0
LINE
  8
0
 10
-11.607
 20
-12.1286
 11
-10.3023
 21
-12.4782
  0
LINE
  8
0
 10
-10.3023
 20
-12.4782
 11
-9.04131
 21
-12.9622
  0
LINE
  8
0
 10
-9.04131
 20
-12.9622
 11
-7.8378
 21
-13.5755
  0
LINE
  8
0
 10
-7.8378
 20
-13.5755
 11
-6.70497
 21
-14.3111
  0
LINE
  8
0
 10
-6.70497
 20
-14.3111
 11
-5.65525
 21
-15.1612
  0
LINE
  8
0
 10
-5.65525
 20
-15.1612
 11
-4.70015
 21
-16.1163
  0
LINE
  8
0
 10
-4.70015
 20
-16.1163
 11
-3.8501
 21
-17.166
  0
LINE
  8
0
 10
-3.8501
 20
-17.166
 11
-3.11442
 21
-18.2988
  0
LINE
  8
0
 10
-3.11442
 20
-18.2988
 11
-2.5012
 21
-19.5023
  0
LINE
  8
0
 10
-2.5012
 20
-19.5023
 11
-2.01715
 21
-20.7634
  0
LINE
  8
0
 10
-2.01715
 20
-20.7634
 11
-1.66756
 21
-22.0681
  0
LINE
  8
0
 10
-1.66756
 20
-22.0681
 11
-1.45626
 21
-23.4022
  0
LINE
  8
0
 10
-1.45626
 20
-23.4022
 11
-1.38555
 21
-24.7511
  0
LINE
  8
0
 10
-1.38555
 20
-24.7511
 11
-1.45626
 21
-26.1
  0
LINE
  8
0
 10
-1.45626
 20
-26.1
 11
-1.66756
 21
-27.4341
  0
LINE
  8
0
 10
-1.66756
 20
-27.4341
 11
-2.01715
 21
-28.7388
  0
LINE
  8
0
 10
-2.01715
 20
-28.7388
 11
-2.5012
 21
-29.9998
  0
LINE
  8
0
 10
-2.5012
 20
-29.9998
 11
-3.11442
 21
-31.2033
  0
LINE
  8
0
 10
-3.11442
 20
-31.2033
 11
-3.8501
 21
-32.3361
  0
LINE
  8
0
 10
-3.8501
 20
-32.3361
 11
-4.70015
 21
-33.3858
  0
LINE
  8
0
 10
-4.70015
 20
-33.3858
 11
-5.65525
 21
-34.341
  0
LINE
  8
0
 10
-5.65525
 20
-34.341
 11
-6.70497
 21
-35.191
  0
LINE
  8
0
 10
-6.70497
 20
-35.191
 11
-7.8378
 21
-35.9267
  0
LINE
  8
0
 10
-7.8378
 20
-35.9267
 11
-9.04131
 21
-36.5399
  0
LINE
  8
0
 10
-9.04131
 20
-36.5399
 11
-10.3023
 21
-37.024
  0
LINE
  8
0
 10
-10.3023
 20
-37.024
 11
-11.607
 21
-37.3735
  0
LINE
  8
0
 10
-11.607
 20
-37.3735
 11
-12.9411
 21
-37.5848
  0
LINE
  8
0
 10
-12.9411
 20
-37.5848
 11
-14.29
 21
-37.6555
  0
LINE
  8
0
 10
-14.29
 20
-37.6555
 11
-15.6389
 21
-37.5848
  0
LINE
  8
0
 10
-15.6389
 20
-37.5848
 11
-16.973
 21
-37.3735
  0
LINE
  8
0
 10
-16.973
 20
-37.3735
 11
-18.2777
 21
-37.024
  0
LINE
  8
0
 10
-18.2777
 20
-37.024
 11
-19.5388
 21
-36.5399
  0
LINE
  8
0
 10
-19.5388
 20
-36.5399
 11
-20.7423
 21
-35.9267
  0
LINE
  8
0
 10
-20.7423
 20
-35.9267
 11
-21.8751
 21
-35.191
  0
LINE
  8
0
 10
-21.8751
 20
-35.191
 11
-22.9248
 21
-34.341
  0
LINE
  8
0
 10
-22.9248
 20
-34.341
 11
-23.8799
 21
-33.3858
  0
LINE
  8
0
 10
-23.8799
 20
-33.3858
 11
-24.73
 21
-32.3361
  0
LINE
  8
0
 10
-24.73
 20
-32.3361
 11
-25.4656
 21
-31.2033
  0
LINE
  8
0
 10
-25.4656
 20
-31.2033
 11
-26.0789
 21
-29.9998
  0
LINE
  8
0
 10
-26.0789
 20
-29.9998
 11
-26.5629
 21
-28.7388
  0
LINE
  8
0
 10
-26.5629
 20
-28.7388
 11
-26.9125
 21
-27.4341
  0
LINE
  8
0
 10
-26.9125
 20
-27.4341
 11
-27.1238
 21
-26.1
  0
LINE
  8
0
 10
-27.1238
 20
-26.1
 11
-27.1945
 21
-24.7511
  0
LINE
  8
0
 10
-27.1945
 20
24.7511
 11
-27.1238
 21
26.1
  0
LINE
  8
0
 10
-27.1238
 20
26.1
 11
-26.9125
 21
27.4341
  0
LINE
  8
0
 10
-26.9125
 20
27.4341
 11
-26.5629
 21
28.7388
  0
LINE
  8
0
 10
-26.5629
 20
28.7388
 11
-26.0789
 21
29.9998
  0
LINE
  8
0
 10
-26.0789
 20
29.9998
 11
-25.4656
 21
31.2033
  0
LINE
  8
0
 10
-25.4656
 20
31.2033
 11
-24.73
 21
32.3361
  0
LINE
  8
0
 10
-24.73
 20
32.3361
 11
-23.8799
 21
33.3858
  0
LINE
  8
0
 10
-23.8799
 20
33.3858
 11
-22.9248
 21
34.341
  0
LINE
  8
0
 10
-22.9248
 20
34.341
 11
-21.8751
 21
35.191
  0
LINE
  8
0
 10
-21.8751
 20
35.191
 11
-20.7423
 21
35.9267
  0
LINE
  8
0
 10
-20.7423
 20
35.9267
 11
-19.5388
 21
36.5399
  0
LINE
  8
0
 10
-19.5388
 20
36.5399
 11
-18.2777
 21
37.024
  0
LINE
  8
0
 10
-18.2777
 20
37.024
 11
-16.973
 21
37.3735
  0
LINE
  8
0
 10
-16.973
 20
37.3735
 11
-15.6389
 21
37.5848
  0
LINE
  8
0
 10
-15.6389
 20
37.5848
 11
-14.29
 21
37.6555
  0
LINE
  8
0
 10
-14.29
 20
37.6555
 11
-12.9411
 21
37.5848
  0
LINE
  8
0
 10
-12.9411
 20
37.5848
 11
-11.607
 21
37.3735
  0
LINE
  8
0
 10
-11.607
 20
37.3735
 11
-10.3023
 21
37.024
  0
LINE
  8
0
 10
-10.3023
 20
37.024
 11
-9.04131
 21
36.5399
  0
LINE
  8
0
 10
-9.04131
 20
36.5399
 11
-7.8378
 21
35.9267
  0
LINE
  8
0
 10
-7.8378
 20
35.9267
 11
-6.70497
 21
35.191
  0
LINE
  8
0
 10
-6.70497
 20
35.191
 11
-5.65525
 21
34.341
  0
LINE
  8
0
 10
-5.65525
 20
34.341
 11
-4.70015
 21
33.3858
  0
LINE
  8
0
 10
-4.70015
 20
33.3858
 11
-3.8501
 21
32.3361
  0
LINE
  8
0
 10
-3.8501
 20
32.3361
 11
-3.11442
 21
31.2033
  0
LINE
  8
0
 10
-3.11442
 20
31.2033
 11
-2.5012
 21
29.9998
  0
LINE
  8
0
 10
-2.5012
 20
29.9998
 11
-2.01715
 21
28.7388
  0
LINE
  8
0
 10
-2.01715
 20
28.7388
 11
-1.66756
 21
27.4341
  0
LINE
  8
0
 10
-1.66756
 20
27.4341
 11
-1.45626
 21
26.1
  0
LINE
  8
0
 10
-1.45626
 20
26.1
 11
-1.38555
 21
24.7511
  0
LINE
  8
0
 10
-1.38555
 20
24.7511
 11
-1.45626
 21
23.4022
  0
LINE
  8
0
 10
-1.45626
 20
23.4022
 11
-1.66756
 21
22.0681
  0
LINE
  8
0
 10
-1.66756
 20
22.0681
 11
-2.01715
 21
20.7634
  0
LINE
  8
0
 10
-2.01715
 20
20.7634
 11
-2.5012
 21
19.5023
  0
LINE
  8
0
 10
-2.5012
 20
19.5023
 11
-3.11442
 21
18.2988
  0
LINE
  8
0
 10
-3.11442
 20
18.2988
 11
-3.8501
 21
17.166
  0
LINE
  8
0
 10
-3.8501
 20
17.166
 11
-4.70015
 21
16.1163
  0
LINE
  8
0
 10
-4.70015
 20
16.1163
 11
-5.65525
 21
15.1612
  0
LINE
  8
0
 10
-5.65525
 20
15.1612
 11
-6.70497
 21
14.3111
  0
LINE
  8
0
 10
-6.70497
 20
14.3111
 11
-7.8378
 21
13.5755
  0
LINE
  8
0
 10
-7.8378
 20
13.5755
 11
-9.04131
 21
12.9622
  0
LINE
  8
0
 10
-9.04131
 20
12.9622
 11
-10.3023
 21
12.4782
  0
LINE
  8
0
 10
-10.3023
 20
12.4782
 11
-11.607
 21
12.1286
  0
LINE
  8
0
 10
-11.607
 20
12.1286
 11
-12.9411
 21
11.9173
  0
LINE
  8
0
 10
-12.9411
 20
11.9173
 11
-14.29
 21
11.8466
  0
LINE
  8
0
 10
-14.29
 20
11.8466
 11
-15.6389
 21
11.9173
  0
LINE
  8
0
 10
-15.6389
 20
11.9173
 11
-16.973
 21
12.1286
  0
LINE
  8
0
 10
-16.973
 20
12.1286
 11
-18.2777
 21
12.4782
  0
LINE
  8
0
 10
-18.2777
 20
12.4782
 11
-19.5388
 21
12.9622
  0
LINE
  8
0
 10
-19.5388
 20
12.9622
 11
-20.7423
 21
13.5755
  0
LINE
  8
0
 10
-20.7423
 20
13.5755
 11
-21.8751
 21
14.3111
  0
LINE
  8
0
 10
-21.8751
 20
14.3111
 11
-22.9248
 21
15.1612
  0
LINE
  8
0
 10
-22.9248
 20
15.1612
 11
-23.8799
 21
16.1163
  0
LINE
  8
0
 10
-23.8799
 20
16.1163
 11
-24.73
 21
17.166
  0
LINE
  8
0
 10
-24.73
 20
17.166
 11
-25.4656
 21
18.2988
  0
LINE
  8
0
 10
-25.4656
 20
18.2988
 11
-26.0789
 21
19.5023
  0
LINE
  8
0
 10
-26.0789
 20
19.5023
 11
-26.5629
 21
20.7634
  0
LINE
  8
0
 10
-26.5629
 20
20.7634
 11
-26.9125
 21
22.0681
  0
LINE
  8
0
 10
-26.9125
 20
22.0681
 11
-27.1238
 21
23.4022
  0
LINE
  8
0
 10
-27.1238
 20
23.4022
 11
-27.1945
 21
24.7511
  0
LINE
  8
0
 10
-4.09573
 20
0
 11
-4.00625
 21
0.851546
  0
LINE
  8
0
 10
-4.00625
 20
0.851546
 11
-3.74163
 21
1.66589
  0
LINE
  8
0
 10
-3.74163
 20
1.66589
 11
-3.31351
 21
2.40741
  0
LINE
  8
0
 10
-3.31351
 20
2.40741
 11
-2.74058
 21
3.04373
  0
LINE
  8
0
 10
-2.74058
 20
3.04373
 11
-2.04786
 21
3.54702
  0
LINE
  8
0
 10
-2.04786
 20
3.54702
 11
-1.26564
 21
3.89528
  0
LINE
  8
0
 10
-1.26564
 20
3.89528
 11
-0.428099
 21
4.0733
  0
LINE
  8
0
 10
-0.428099
 20
4.0733
 11
0.428099
 21
4.0733
  0
LINE
  8
0
 10
0.428099
 20
4.0733
 11
1.26564
 21
3.89528
  0
LINE
  8
0
 10
1.26564
 20
3.89528
 11
2.04786
 21
3.54702
  0
LINE
  8
0
 10
2.04786
 20
3.54702
 11
2.74058
 21
3.04373
  0
LINE
  8
0
 10
2.74058
 20
3.04373
 11
3.31351
 21
2.40741
  0
LINE
  8
0
 10
3.31351
 20
2.40741
 11
3.74163
 21
1.66589
  0
LINE
  8
0
 10
3.74163
 20
1.66589
 11
4.00625
 21
0.851546
  0
LINE
  8
0
 10
4.00625
 20
0.851546
 11
4.09573
 21
0
  0
LINE
  8
0
 10
4.09573
 20
0
 11
4.00625
 21
-0.851546
  0
LINE
  8
0
 10
4.00625
 20
-0.851546
 11
3.74163
 21
-1.66589
  0
LINE
  8
0
 10
3.74163
 20
-1.66589
 11
3.31351
 21
-2.40741
  0
LINE
  8
0
 10
3.31351
 20
-2.40741
 11
2.74058
 21
-3.04373
  0
LINE
  8
0
 10
2.74058
 20
-3.04373
 11
2.04786
 21
-3.54702
  0
LINE
  8
0
 10
2.04786
 20
-3.54702
 11
1.26564
 21
-3.89528
  0
LINE
  8
0
 10
1.26564
 20
-3.89528
 11
0.428099
 21
-4.0733
  0
LINE
  8
0
 10
0.428099
 20
-4.0733
 11
-0.428099
 21
-4.0733
  0
LINE
  8
0
 10
-0.428099
 20
-4.0733
 11
-1.26564
 21
-3.89528
  0
LINE
  8
0
 10
-1.26564
 20
-3.89528
 11
-2.04786
 21
-3.54702
  0
LINE
  8
0
 10
-2.04786
 20
-3.54702
 11
-2.74058
 21
-3.04373
  0
LINE
  8
0
 10
-2.74058
 20
-3.04373
 11
-3.31351
 21
-2.40741
  0
LINE
  8
0
 10
-3.31351
 20
-2.40741
 11
-3.74163
 21
-1.66589
  0
LINE
  8
0
 10
-3.74163
 20
-1.66589
 11
-4.00625
 21
-0.851546
  0
LINE
  8
0
 10
-4.00625
 20
-0.851546
 11
-4.09573
 21
0
  0
LINE
  8
0
 10
1.38555
 20
-24.7511
 11
1.45626
 21
-23.4022
  0
LINE
  8
0
 10
1.45626
 20
-23.4022
 11
1.66756
 21
-22.0681
  0
LINE
  8
0
 10
1.66756
 20
-22.0681
 11
2.01715
 21
-20.7634
  0
LINE
  8
0
 10
2.01715
 20
-20.7634
 11
2.5012
 21
-19.5023
  0
LINE
  8
0
 10
2.5012
 20
-19.5023
 11
3.11442
 21
-18.2988
  0
LINE
  8
0
 10
3.11442
 20
-18.2988
 11
3.8501
 21
-17.166
  0
LINE
  8
0
 10
3.8501
 20
-17.166
 11
4.70015
 21
-16.1163
  0
LINE
  8
0
 10
4.70015
 20
-16.1163
 11
5.65525
 21
-15.1612
  0
LINE
  8
0
 10
5.65525
 20
-15.1612
 11
6.70497
 21
-14.3111
  0
LINE
  8
0
 10
6.70497
 20
-14.3111
 11
7.8378
 21
-13.5755
  0
LINE
  8
0
 10
7.8378
 20
-13.5755
 11
9.04131
 21
-12.9622
  0
LINE
  8
0
 10
9.04131
 20
-12.9622
 11
10.3023
 21
-12.4782
  0
LINE
  8
0
 10
10.3023
 20
-12.4782
 11
11.607
 21
-12.1286
  0
LINE
  8
0
 10
11.607
 20
-12.1286
 11
12.9411
 21
-11.9173
  0
LINE
  8
0
 10
12.9411
 20
-11.9173
 11
14.29
 21
-11.8466
  0
LINE
  8
0
 10
14.29
 20
-11.8466
 11
15.6389
 21
-11.9173
  0
LINE
  8
0
 10
15.6389
 20
-11.9173
 11
16.973
 21
-12.1286
  0
LINE
  8
0
 10
16.973
 20
-12.1286
 11
18.2777
 21
-12.4782
  0
LINE
  8
0
 10
18.2777
 20
-12.4782
 11
19.5388
 21
-12.9622
  0
LINE
  8
0
 10
19.5388
 20
-12.9622
 11
20.7423
 21
-13.5755
  0
LINE
  8
0
 10
20.7423
 20
-13.5755
 11
21.8751
 21
-14.3111
  0
LINE
  8
0
 10
21.8751
 20
-14.3111
 11
22.9248
 21
-15.1612
  0
LINE
  8
0
 10
22.9248
 20
-15.1612
 11
23.8799
 21
-16.1163
  0
LINE
  8
0
 10
23.8799
 20
-16.1163
 11
24.73
 21
-17.166
  0
LINE
  8
0
 10
24.73
 20
-17.166
 11
25.4656
 21
-18.2988
  0
LINE
  8
0
 10
25.4656
 20
-18.2988
 11
26.0789
 21
-19.5023
  0
LINE
  8
0
 10
26.0789
 20
-19.5023
 11
26.5629
 21
-20.7634
  0
LINE
  8
0
 10
26.5629
 20
-20.7634
 11
26.9125
 21
-22.0681
  0
LINE
  8
0
 10
26.9125
 20
-22.0681
 11
27.1238
 21
-23.4022
  0
LINE
  8
0
 10
27.1238
 20
-23.4022
 11
27.1945
 21
-24.7511
  0
LINE
  8
0
 10
27.1945
 20
-24.7511
 11
27.1238
 21
-26.1
  0
LINE
  8
0
 10
27.1238
 20
-26.1
 11
26.9125
 21
-27.4341
  0
LINE
  8
0
 10
26.9125
 20
-27.4341
 11
26.5629
 21
-28.7388
  0
LINE
  8
0
 10
26.5629
 20
-28.7388
 11
26.0789
 21
-29.9998
  0
LINE
  8
0
 10
26.0789
 20
-29.9998
 11
25.4656
 21
-31.2033
  0
LINE
  8
0
 10
25.4656
 20
-31.2033
 11
24.73
 21
-32.3361
  0
LINE
  8
0
 10
24.73
 20
-32.3361
 11
23.8799
 21
-33.3858
  0
LINE
  8
0
 10
23.8799
 20
-33.3858
 11
22.9248
 21
-34.341
  0
LINE
  8
0
 10
22.9248
 20
-34.341
 11
21.8751
 21
-35.191
  0
LINE
  8
0
 10
21.8751
 20
-35.191
 11
20.7423
 21
-35.9267
  0
LINE
  8
0
 10
20.7423
 20
-35.9267
 11
19.5388
 21
-36.5399
  0
LINE
  8
0
 10
19.5388
 20
-36.5399
 11
18.2777
 21
-37.024
  0
LINE
  8
0
 10
18.2777
 20
-37.024
 11
16.973
 21
-37.3735
  0
LINE
  8
0
 10
16.973
 20
-37.3735
 11
15.6389
 21
-37.5848
  0
LINE
  8
0
 10
15.6389
 20
-37.5848
 11
14.29
 21
-37.6555
  0
LINE
  8
0
 10
14.29
 20
-37.6555
 11
12.9411
 21
-37.5848
  0
LINE
  8
0
 10
12.9411
 20
-37.5848
 11
11.607
 21
-37.3735
  0
LINE
  8
0
 10
11.607
 20
-37.3735
 11
10.3023
 21
-37.024
  0
LINE
  8
0
 10
10.3023
 20
-37.024
 11
9.04131
 21
-36.5399
  0
LINE
  8
0
 10
9.04131
 20
-36.5399
 11
7.8378
 21
-35.9267
  0
LINE
  8
0
 10
7.8378
 20
-35.9267
 11
6.70497
 21
-35.191
  0
LINE
  8
0
 10
6.70497
 20
-35.191
 11
5.65525
 21
-34.341
  0
LINE
  8
0
 10
5.65525
 20
-34.341
 11
4.70015
 21
-33.3858
  0
LINE
  8
0
 10
4.70015
 20
-33.3858
 11
3.8501
 21
-32.3361
  0
LINE
  8
0
 10
3.8501
 20
-32.3361
 11
3.11442
 21
-31.2033
  0
LINE
  8
0
 10
3.11442
 20
-31.2033
 11
2.5012
 21
-29.9998
  0
LINE
  8
0
 10
2.5012
 20
-29.9998
 11
2.01715
 21
-28.7388
  0
LINE
  8
0
 10
2.01715
 20
-28.7388
 11
1.66756
 21
-27.4341
  0
LINE
  8
0
 10
1.66756
 20
-27.4341
 11
1.45626
 21
-26.1
  0
LINE
  8
0
 10
1.45626
 20
-26.1
 11
1.38555
 21
-24.7511
  0
LINE
  8
0
 10
1.38555
 20
24.7511
 11
1.45626
 21
26.1
  0
LINE
  8
0
 10
1.45626
 20
26.1
 11
1.66756
 21
27.4341
  0
LINE
  8
0
 10
1.66756
 20
27.4341
 11
2.01715
 21
28.7388
  0
LINE
  8
0
 10
2.01715
 20
28.7388
 11
2.5012
 21
29.9998
  0
LINE
  8
0
 10
2.5012
 20
29.9998
 11
3.11442
 21
31.2033
  0
LINE
  8
0
 10
3.11442
 20
31.2033
 11
3.8501
 21
32.3361
  0
LINE
  8
0
 10
3.8501
 20
32.3361
 11
4.70015
 21
33.3858
  0
LINE
  8
0
 10
4.70015
 20
33.3858
 11
5.65525
 21
34.341
  0
LINE
  8
0
 10
5.65525
 20
34.341
 11
6.70497
 21
35.191
  0
LINE
  8
0
 10
6.70497
 20
35.191
 11
7.8378
 21
35.9267
  0
LINE
  8
0
 10
7.8378
 20
35.9267
 11
9.04131
 21
36.5399
  0
LINE
  8
0
 10
9.04131
 20
36.5399
 11
10.3023
 21
37.024
  0
LINE
  8
0
 10
10.3023
 20
37.024
 11
11.607
 21
37.3735
  0
LINE
  8
0
 10
11.607
 20
37.3735
 11
12.9411
 21
37.5848
  0
LINE
  8
0
 10
12.9411
 20
37.5848
 11
14.29
 21
37.6555
  0
LINE
  8
0
 10
14.29
 20
37.6555
 11
15.6389
 21
37.5848
  0
LINE
  8
0
 10
15.6389
 20
37.5848
 11
16.973
 21
37.3735
  0
LINE
  8
0
 10
16.973
 20
37.3735
 11
18.2777
 21
37.024
  0
LINE
  8
0
 10
18.2777
 20
37.024
 11
19.5388
 21
36.5399
  0
LINE
  8
0
 10
19.5388
 20
36.5399
 11
20.7423
 21
35.9267
  0
LINE
  8
0
 10
20.7423
 20
35.9267
 11
21.8751
 21
35.191
  0
LINE
  8
0
 10
21.8751
 20
35.191
 11
22.9248
 21
34.341
  0
LINE
  8
0
 10
22.9248
 20
34.341
 11
23.8799
 21
33.3858
  0
LINE
  8
0
 10
23.8799
 20
33.3858
 11
24.73
 21
32.3361
  0
LINE
  8
0
 10
24.73
 20
32.3361
 11
25.4656
 21
31.2033
  0
LINE
  8
0
 10
25.4656
 20
31.2033
 11
26.0789
 21
29.9998
  0
LINE
  8
0
 10
26.0789
 20
29.9998
 11
26.5629
 21
28.7388
  0
LINE
  8
0
 10
26.5629
 20
28.7388
 11
26.9125
 21
27.4341
  0
LINE
  8
0
 10
26.9125
 20
27.4341
 11
27.1238
 21
26.1
  0
LINE
  8
0
 10
27.1238
 20
26.1
 11
27.1945
 21
24.7511
  0
LINE
  8
0
 10
27.1945
 20
24.7511
 11
27.1238
 21
23.4022
  0
LINE
  8
0
 10
27.1238
 20
23.4022
 11
26.9125
 21
22.0681
  0
LINE
  8
0
 10
26.9125
 20
22.0681
 11
26.5629
 21
20.7634
  0
LINE
  8
0
 10
26.5629
 20
20.7634
 11
26.0789
 21
19.5023
  0
LINE
  8
0
 10
26.0789
 20
19.5023
 11
25.4656
 21
18.2988
  0
LINE
  8
0
 10
25.4656
 20
18.2988
 11
24.73
 21
17.166
  0
LINE
  8
0
 10
24.73
 20
17.166
 11
23.8799
 21
16.1163
  0
LINE
  8
0
 10
23.8799
 20
16.1163
 11
22.9248
 21
15.1612
  0
LINE
  8
0
 10
22.9248
 20
15.1612
 11
21.8751
 21
14.3111
  0
LINE
  8
0
 10
21.8751
 20
14.3111
 11
20.7423
 21
13.5755
  0
LINE
  8
0
 10
20.7423
 20
13.5755
 11
19.5388
 21
12.9622
  0
LINE
  8
0
 10
19.5388
 20
12.9622
 11
18.2777
 21
12.4782
  0
LINE
  8
0
 10
18.2777
 20
12.4782
 11
16.973
 21
12.1286
  0
LINE
  8
0
 10
16.973
 20
12.1286
 11
15.6389
 21
11.9173
  0
LINE
  8
0
 10
15.6389
 20
11.9173
 11
14.29
 21
11.8466
  0
LINE
  8
0
 10
14.29
 20
11.8466
 11
12.9411
 21
11.9173
  0
LINE
  8
0
 10
12.9411
 20
11.9173
 11
11.607
 21
12.1286
  0
LINE
  8
0
 10
11.607
 20
12.1286
 11
10.3023
 21
12.4782
  0
LINE
  8
0
 10
10.3023
 20
12.4782
 11
9.04131
 21
12.9622
  0
LINE
  8
0
 10
9.04131
 20
12.9622
 11
7.8378
 21
13.5755
  0
LINE
  8
0
 10
7.8378
 20
13.5755
 11
6.70497
 21
14.3111
  0
LINE
  8
0
 10
6.70497
 20
14.3111
 11
5.65525
 21
15.1612
  0
LINE
  8
0
 10
5.65525
 20
15.1612
 11
4.70015
 21
16.1163
  0
LINE
  8
0
 10
4.70015
 20
16.1163
 11
3.8501
 21
17.166
  0
LINE
  8
0
 10
3.8501
 20
17.166
 11
3.11442
 21
18.2988
  0
LINE
  8
0
 10
3.11442
 20
18.2988
 11
2.5012
 21
19.5023
  0
LINE
  8
0
 10
2.5012
 20
19.5023
 11
2.01715
 21
20.7634
  0
LINE
  8
0
 10
2.01715
 20
20.7634
 11
1.66756
 21
22.0681
  0
LINE
  8
0
 10
1.66756
 20
22.0681
 11
1.45626
 21
23.4022
  0
LINE
  8
0
 10
1.45626
 20
23.4022
 11
1.38555
 21
24.7511
  0
LINE
  8
0
 10
15.6756
 20
0
 11
15.7463
 21
1.34888
  0
LINE
  8
0
 10
15.7463
 20
1.34888
 11
15.9576
 21
2.68298
  0
LINE
  8
0
 10
15.9576
 20
2.68298
 11
16.3072
 21
3.98769
  0
LINE
  8
0
 10
16.3072
 20
3.98769
 11
16.7912
 21
5.24871
  0
LINE
  8
0
 10
16.7912
 20
5.24871
 11
17.4045
 21
6.45222
  0
LINE
  8
0
 10
17.4045
 20
6.45222
 11
18.1401
 21
7.58505
  0
LINE
  8
0
 10
18.1401
 20
7.58505
 11
18.9902
 21
8.63477
  0
LINE
  8
0
 10
18.9902
 20
8.63477
 11
19.9453
 21
9.58987
  0
LINE
  8
0
 10
19.9453
 20
9.58987
 11
20.995
 21
10.4399
  0
LINE
  8
0
 10
20.995
 20
10.4399
 11
22.1278
 21
11.1756
  0
LINE
  8
0
 10
22.1278
 20
11.1756
 11
23.3314
 21
11.7888
  0
LINE
  8
0
 10
23.3314
 20
11.7888
 11
24.5924
 21
12.2729
  0
LINE
  8
0
 10
24.5924
 20
12.2729
 11
25.8971
 21
12.6225
  0
LINE
  8
0
 10
25.8971
 20
12.6225
 11
27.2312
 21
12.8338
  0
LINE
  8
0
 10
27.2312
 20
12.8338
 11
28.5801
 21
12.9045
  0
LINE
  8
0
 10
28.5801
 20
12.9045
 11
29.929
 21
12.8338
  0
LINE
  8
0
 10
29.929
 20
12.8338
 11
31.2631
 21
12.6225
  0
LINE
  8
0
 10
31.2631
 20
12.6225
 11
32.5678
 21
12.2729
  0
LINE
  8
0
 10
32.5678
 20
12.2729
 11
33.8288
 21
11.7888
  0
LINE
  8
0
 10
33.8288
 20
11.7888
 11
35.0323
 21
11.1756
  0
LINE
  8
0
 10
35.0323
 20
11.1756
 11
36.1651
 21
10.4399
  0
LINE
  8
0
 10
36.1651
 20
10.4399
 11
37.2149
 21
9.58987
  0
LINE
  8
0
 10
37.2149
 20
9.58987
 11
38.17
 21
8.63477
  0
LINE
  8
0
 10
38.17
 20
8.63477
 11
39.02
 21
7.58505
  0
LINE
  8
0
 10
39.02
 20
7.58505
 11
39.7557
 21
6.45222
  0
LINE
  8
0
 10
39.7557
 20
6.45222
 11
40.3689
 21
5.24871
  0
LINE
  8
0
 10
40.3689
 20
5.24871
 11
40.853
 21
3.98769
  0
LINE
  8
0
 10
40.853
 20
3.98769
 11
41.2025
 21
2.68298
  0
LINE
  8
0
 10
41.2025
 20
2.68298
 11
41.4138
 21
1.34888
  0
LINE
  8
0
 10
41.4138
 20
1.34888
 11
41.4845
 21
0
  0
LINE
  8
0
 10
41.4845
 20
0
 11
41.4138
 21
-1.34888
  0
LINE
  8
0
 10
41.4138
 20
-1.34888
 11
41.2025
 21
-2.68298
  0
LINE
  8
0
 10
41.2025
 20
-2.68298
 11
40.853
 21
-3.98769
  0
LINE
  8
0
 10
40.853
 20
-3.98769
 11
40.3689
 21
-5.24871
  0
LINE
  8
0
 10
40.3689
 20
-5.24871
 11
39.7557
 21
-6.45222
  0
LINE
  8
0
 10
39.7557
 20
-6.45222
 11
39.02
 21
-7.58505
  0
LINE
  8
0
 10
39.02
 20
-7.58505
 11
38.17
 21
-8.63477
  0
LINE
  8
0
 10
38.17
 20
-8.63477
 11
37.2149
 21
-9.58987
  0
LINE
  8
0
 10
37.2149
 20
-9.58987
 11
36.1651
 21
-10.4399
  0
LINE
  8
0
 10
36.1651
 20
-10.4399
 11
35.0323
 21
-11.1756
  0
LINE
  8
0
 10
35.0323
 20
-11.1756
 11
33.8288
 21
-11.7888
  0
LINE
  8
0
 10
33.8288
 20
-11.7888
 11
32.5678
 21
-12.2729
  0
LINE
  8
0
 10
32.5678
 20
-12.2729
 11
31.2631
 21
-12.6225
  0
LINE
  8
0
 10
31.2631
 20
-12.6225
 11
29.929
 21
-12.8338
  0
LINE
  8
0
 10
29.929
 20
-12.8338
 11
28.5801
 21
-12.9045
  0
LINE
  8
0
 10
28.5801
 20
-12.9045
 11
27.2312
 21
-12.8338
  0
LINE
  8
0
 10
27.2312
 20
-12.8338
 11
25.8971
 21
-12.6225
  0
LINE
  8
0
 10
25.8971
 20
-12.6225
 11
24.5924
 21
-12.2729
  0
LINE
  8
0
 10
24.5924
 20
-12.2729
 11
23.3314
 21
-11.7888
  0
LINE
  8
0
 10
23.3314
 20
-11.7888
 11
22.1278
 21
-11.1756
  0
LINE
  8
0
 10
22.1278
 20
-11.1756
 11
20.995
 21
-10.4399
  0
LINE
  8
0
 10
20.995
 20
-10.4399
 11
19.9453
 21
-9.58987
  0
LINE
  8
0
 10
19.9453
 20
-9.58987
 11
18.9902
 21
-8.63477
  0
LINE
  8
0
 10
18.9902
 20
-8.63477
 11
18.1401
 21
-7.58505
  0
LINE
  8
0
 10
18.1401
 20
-7.58505
 11
17.4045
 21
-6.45222
  0
LINE
  8
0
 10
17.4045
 20
-6.45222
 11
16.7912
 21
-5.24871
  0
LINE
  8
0
 10
16.7912
 20
-5.24871
 11
16.3072
 21
-3.98769
  0
LINE
  8
0
 10
16.3072
 20
-3.98769
 11
15.9576
 21
-2.68298
  0
LINE
  8
0
 10
15.9576
 20
-2.68298
 11
15.7463
 21
-1.34888
  0
LINE
  8
0
 10
15.7463
 20
-1.34888
 11
15.6756
 21
0
  0
ENDSEC
  0
SECTION
  2
OBJECTS
  0
DICTIONARY
  0
ENDSEC
  0
EOF
