999
FreeCAD v0.19 
  0
SECTION
  2
HEADER
  9
$ACADVER
  1
AC1014
  9
$ACADMAINTVER
 70
     9
  9
$DWGCODEPAGE
  3
ANSI_1252
  9
$TEXTSTYLE
  7
STANDARD
  9
$DIMSTYLE
  2
STANDARD
  9
$DIMTXSTY
  7
STANDARD
  9
$CMLSTYLE
  2
STANDARD
  9
$PEXTMAX
 10
50
 20
50
 30
50
  9
$PEXTMIN
 10
0
 20
0
 30
0
  9
$HANDSEED
  5
FFFF
  0
ENDSEC
  0
SECTION
  2
CLASSES
  0
CLASS
  1
ACDBDICTIONARYWDFLT
  2
AcDbDictionaryWithDefault
  3
ObjectDBX Classes
 90
        0
280
     0
281
     0
  0
CLASS
  1
XRECORD
  2
AcDbXrecord
  3
ObjectDBX Classes
 90
        0
280
     0
281
     0
  0
CLASS
  1
LWPOLYLINE
  2
AcDbPolyline
  3
ObjectDBX Classes
 90
        0
280
     0
281
     1
  0
ENDSEC
  0
SECTION
  2
TABLES
  0
TABLE
  2
VPORT
  5
20
330
0
100
AcDbSymbolTable
 70
     1
  0
VPORT
  5
21
330
20
100
AcDbSymbolTableRecord
100
AcDbViewportTableRecord
  2
*ACTIVE
 70
     0
  0
ENDTAB
  0
TABLE
  2
LTYPE
  5
22
330
0
100
AcDbSymbolTable
 70
     1
  0
LTYPE
  5
23
330
21
100
AcDbSymbolTableRecord
100
AcDbLinetypeTableRecord
  2
BYBLOCK
 70
     0
  3

 72
    65
 73
     0
 40
0.0
  0
LTYPE
  5
24
330
21
100
AcDbSymbolTableRecord
100
AcDbLinetypeTableRecord
  2
BYLAYER
 70
     0
  3

 72
    65
 73
     0
 40
0.0
  0
LTYPE
  5
25
330
21
100
AcDbSymbolTableRecord
100
AcDbLinetypeTableRecord
  2
CONTINUOUS
 70
     0
  3
Solid line
 72
    65
 73
     0
 40
0.0
  0
ENDTAB
  0
TABLE
  2
LAYER
  5
A47
330
0
100
AcDbSymbolTable
 70
65
  0
LAYER
  5
A48
330
A47
100
AcDbSymbolTableRecord
100
AcDbLayerTableRecord
  2
0
 70
   0
 62
   7
  6
CONTINUOUS
  0
LAYER
  5
A49
330
A47
100
AcDbSymbolTableRecord
100
AcDbLayerTableRecord
  2
none
 70
    0
 62
    7
  6
CONTINUOUS
  0
LAYER
  5
A4A
330
A47
100
AcDbSymbolTableRecord
100
AcDbLayerTableRecord
  2
Line
 70
    0
 62
    7
  6
CONTINUOUS
  0
LAYER
  5
A4B
330
A47
100
AcDbSymbolTableRecord
100
AcDbLayerTableRecord
  2
Line001
 70
    0
 62
    7
  6
CONTINUOUS
  0
LAYER
  5
A4C
330
A47
100
AcDbSymbolTableRecord
100
AcDbLayerTableRecord
  2
Line002
 70
    0
 62
    7
  6
CONTINUOUS
  0
LAYER
  5
A4D
330
A47
100
AcDbSymbolTableRecord
100
AcDbLayerTableRecord
  2
Line003
 70
    0
 62
    7
  6
CONTINUOUS
  0
LAYER
  5
A4E
330
A47
100
AcDbSymbolTableRecord
100
AcDbLayerTableRecord
  2
Line004
 70
    0
 62
    7
  6
CONTINUOUS
  0
LAYER
  5
A4F
330
A47
100
AcDbSymbolTableRecord
100
AcDbLayerTableRecord
  2
Line005
 70
    0
 62
    7
  6
CONTINUOUS
  0
LAYER
  5
A50
330
A47
100
AcDbSymbolTableRecord
100
AcDbLayerTableRecord
  2
Line006
 70
    0
 62
    7
  6
CONTINUOUS
  0
LAYER
  5
A51
330
A47
100
AcDbSymbolTableRecord
100
AcDbLayerTableRecord
  2
Line007
 70
    0
 62
    7
  6
CONTINUOUS
  0
LAYER
  5
A52
330
A47
100
AcDbSymbolTableRecord
100
AcDbLayerTableRecord
  2
Line008
 70
    0
 62
    7
  6
CONTINUOUS
  0
LAYER
  5
A53
330
A47
100
AcDbSymbolTableRecord
100
AcDbLayerTableRecord
  2
Line009
 70
    0
 62
    7
  6
CONTINUOUS
  0
LAYER
  5
A54
330
A47
100
AcDbSymbolTableRecord
100
AcDbLayerTableRecord
  2
Line010
 70
    0
 62
    7
  6
CONTINUOUS
  0
LAYER
  5
A55
330
A47
100
AcDbSymbolTableRecord
100
AcDbLayerTableRecord
  2
Line011
 70
    0
 62
    7
  6
CONTINUOUS
  0
LAYER
  5
A56
330
A47
100
AcDbSymbolTableRecord
100
AcDbLayerTableRecord
  2
Line012
 70
    0
 62
    7
  6
CONTINUOUS
  0
LAYER
  5
A57
330
A47
100
AcDbSymbolTableRecord
100
AcDbLayerTableRecord
  2
Line013
 70
    0
 62
    7
  6
CONTINUOUS
  0
LAYER
  5
A58
330
A47
100
AcDbSymbolTableRecord
100
AcDbLayerTableRecord
  2
Line014
 70
    0
 62
    7
  6
CONTINUOUS
  0
LAYER
  5
A59
330
A47
100
AcDbSymbolTableRecord
100
AcDbLayerTableRecord
  2
Line015
 70
    0
 62
    7
  6
CONTINUOUS
  0
LAYER
  5
A5A
330
A47
100
AcDbSymbolTableRecord
100
AcDbLayerTableRecord
  2
Line016
 70
    0
 62
    7
  6
CONTINUOUS
  0
LAYER
  5
A5B
330
A47
100
AcDbSymbolTableRecord
100
AcDbLayerTableRecord
  2
Line017
 70
    0
 62
    7
  6
CONTINUOUS
  0
LAYER
  5
A5C
330
A47
100
AcDbSymbolTableRecord
100
AcDbLayerTableRecord
  2
Line018
 70
    0
 62
    7
  6
CONTINUOUS
  0
LAYER
  5
A5D
330
A47
100
AcDbSymbolTableRecord
100
AcDbLayerTableRecord
  2
Line019
 70
    0
 62
    7
  6
CONTINUOUS
  0
LAYER
  5
A5E
330
A47
100
AcDbSymbolTableRecord
100
AcDbLayerTableRecord
  2
Line020
 70
    0
 62
    7
  6
CONTINUOUS
  0
LAYER
  5
A5F
330
A47
100
AcDbSymbolTableRecord
100
AcDbLayerTableRecord
  2
Line021
 70
    0
 62
    7
  6
CONTINUOUS
  0
LAYER
  5
A60
330
A47
100
AcDbSymbolTableRecord
100
AcDbLayerTableRecord
  2
Line022
 70
    0
 62
    7
  6
CONTINUOUS
  0
LAYER
  5
A61
330
A47
100
AcDbSymbolTableRecord
100
AcDbLayerTableRecord
  2
Line023
 70
    0
 62
    7
  6
CONTINUOUS
  0
LAYER
  5
A62
330
A47
100
AcDbSymbolTableRecord
100
AcDbLayerTableRecord
  2
Line024
 70
    0
 62
    7
  6
CONTINUOUS
  0
LAYER
  5
A63
330
A47
100
AcDbSymbolTableRecord
100
AcDbLayerTableRecord
  2
Line025
 70
    0
 62
    7
  6
CONTINUOUS
  0
LAYER
  5
A64
330
A47
100
AcDbSymbolTableRecord
100
AcDbLayerTableRecord
  2
Line026
 70
    0
 62
    7
  6
CONTINUOUS
  0
LAYER
  5
A65
330
A47
100
AcDbSymbolTableRecord
100
AcDbLayerTableRecord
  2
Line027
 70
    0
 62
    7
  6
CONTINUOUS
  0
LAYER
  5
A66
330
A47
100
AcDbSymbolTableRecord
100
AcDbLayerTableRecord
  2
Line028
 70
    0
 62
    7
  6
CONTINUOUS
  0
LAYER
  5
A67
330
A47
100
AcDbSymbolTableRecord
100
AcDbLayerTableRecord
  2
Line029
 70
    0
 62
    7
  6
CONTINUOUS
  0
LAYER
  5
A68
330
A47
100
AcDbSymbolTableRecord
100
AcDbLayerTableRecord
  2
Line030
 70
    0
 62
    7
  6
CONTINUOUS
  0
LAYER
  5
A69
330
A47
100
AcDbSymbolTableRecord
100
AcDbLayerTableRecord
  2
Line031
 70
    0
 62
    7
  6
CONTINUOUS
  0
LAYER
  5
A6A
330
A47
100
AcDbSymbolTableRecord
100
AcDbLayerTableRecord
  2
Line032
 70
    0
 62
    7
  6
CONTINUOUS
  0
LAYER
  5
A6B
330
A47
100
AcDbSymbolTableRecord
100
AcDbLayerTableRecord
  2
Line033
 70
    0
 62
    7
  6
CONTINUOUS
  0
LAYER
  5
A6C
330
A47
100
AcDbSymbolTableRecord
100
AcDbLayerTableRecord
  2
Line034
 70
    0
 62
    7
  6
CONTINUOUS
  0
LAYER
  5
A6D
330
A47
100
AcDbSymbolTableRecord
100
AcDbLayerTableRecord
  2
Line035
 70
    0
 62
    7
  6
CONTINUOUS
  0
LAYER
  5
A6E
330
A47
100
AcDbSymbolTableRecord
100
AcDbLayerTableRecord
  2
Line036
 70
    0
 62
    7
  6
CONTINUOUS
  0
LAYER
  5
A6F
330
A47
100
AcDbSymbolTableRecord
100
AcDbLayerTableRecord
  2
Line037
 70
    0
 62
    7
  6
CONTINUOUS
  0
LAYER
  5
A70
330
A47
100
AcDbSymbolTableRecord
100
AcDbLayerTableRecord
  2
Line038
 70
    0
 62
    7
  6
CONTINUOUS
  0
LAYER
  5
A71
330
A47
100
AcDbSymbolTableRecord
100
AcDbLayerTableRecord
  2
Line039
 70
    0
 62
    7
  6
CONTINUOUS
  0
LAYER
  5
A72
330
A47
100
AcDbSymbolTableRecord
100
AcDbLayerTableRecord
  2
Line040
 70
    0
 62
    7
  6
CONTINUOUS
  0
LAYER
  5
A73
330
A47
100
AcDbSymbolTableRecord
100
AcDbLayerTableRecord
  2
Line041
 70
    0
 62
    7
  6
CONTINUOUS
  0
LAYER
  5
A74
330
A47
100
AcDbSymbolTableRecord
100
AcDbLayerTableRecord
  2
Line042
 70
    0
 62
    7
  6
CONTINUOUS
  0
LAYER
  5
A75
330
A47
100
AcDbSymbolTableRecord
100
AcDbLayerTableRecord
  2
Line043
 70
    0
 62
    7
  6
CONTINUOUS
  0
LAYER
  5
A76
330
A47
100
AcDbSymbolTableRecord
100
AcDbLayerTableRecord
  2
Line044
 70
    0
 62
    7
  6
CONTINUOUS
  0
LAYER
  5
A77
330
A47
100
AcDbSymbolTableRecord
100
AcDbLayerTableRecord
  2
Line045
 70
    0
 62
    7
  6
CONTINUOUS
  0
LAYER
  5
A78
330
A47
100
AcDbSymbolTableRecord
100
AcDbLayerTableRecord
  2
Line046
 70
    0
 62
    7
  6
CONTINUOUS
  0
LAYER
  5
A79
330
A47
100
AcDbSymbolTableRecord
100
AcDbLayerTableRecord
  2
Line047
 70
    0
 62
    7
  6
CONTINUOUS
  0
LAYER
  5
A7A
330
A47
100
AcDbSymbolTableRecord
100
AcDbLayerTableRecord
  2
Line048
 70
    0
 62
    7
  6
CONTINUOUS
  0
LAYER
  5
A7B
330
A47
100
AcDbSymbolTableRecord
100
AcDbLayerTableRecord
  2
Line049
 70
    0
 62
    7
  6
CONTINUOUS
  0
LAYER
  5
A7C
330
A47
100
AcDbSymbolTableRecord
100
AcDbLayerTableRecord
  2
Line050
 70
    0
 62
    7
  6
CONTINUOUS
  0
LAYER
  5
A7D
330
A47
100
AcDbSymbolTableRecord
100
AcDbLayerTableRecord
  2
Line051
 70
    0
 62
    7
  6
CONTINUOUS
  0
LAYER
  5
A7E
330
A47
100
AcDbSymbolTableRecord
100
AcDbLayerTableRecord
  2
Line052
 70
    0
 62
    7
  6
CONTINUOUS
  0
LAYER
  5
A7F
330
A47
100
AcDbSymbolTableRecord
100
AcDbLayerTableRecord
  2
Line053
 70
    0
 62
    7
  6
CONTINUOUS
  0
LAYER
  5
A80
330
A47
100
AcDbSymbolTableRecord
100
AcDbLayerTableRecord
  2
Line054
 70
    0
 62
    7
  6
CONTINUOUS
  0
LAYER
  5
A81
330
A47
100
AcDbSymbolTableRecord
100
AcDbLayerTableRecord
  2
Circle
 70
    0
 62
    7
  6
CONTINUOUS
  0
LAYER
  5
A82
330
A47
100
AcDbSymbolTableRecord
100
AcDbLayerTableRecord
  2
Circle001
 70
    0
 62
    7
  6
CONTINUOUS
  0
LAYER
  5
A83
330
A47
100
AcDbSymbolTableRecord
100
AcDbLayerTableRecord
  2
Circle002
 70
    0
 62
    7
  6
CONTINUOUS
  0
LAYER
  5
A84
330
A47
100
AcDbSymbolTableRecord
100
AcDbLayerTableRecord
  2
Circle003
 70
    0
 62
    7
  6
CONTINUOUS
  0
LAYER
  5
A85
330
A47
100
AcDbSymbolTableRecord
100
AcDbLayerTableRecord
  2
Circle004
 70
    0
 62
    7
  6
CONTINUOUS
  0
LAYER
  5
A86
330
A47
100
AcDbSymbolTableRecord
100
AcDbLayerTableRecord
  2
Circle005
 70
    0
 62
    7
  6
CONTINUOUS
  0
LAYER
  5
A87
330
A47
100
AcDbSymbolTableRecord
100
AcDbLayerTableRecord
  2
Circle006
 70
    0
 62
    7
  6
CONTINUOUS
  0
LAYER
  5
A88
330
A47
100
AcDbSymbolTableRecord
100
AcDbLayerTableRecord
  2
Circle007
 70
    0
 62
    7
  6
CONTINUOUS
  0
ENDTAB
  0
TABLE
  2
STYLE
  5
70
330
0
100
AcDbSymbolTable
 70
     2
  0
STYLE
  5
71
330
70
100
AcDbSymbolTableRecord
100
AcDbTextStyleTableRecord
  2
STANDARD
 70
     0
 40
0.0
 41
1.0
 50
0.0
 71
     0
 42
2.5
  3
arial.ttf
  4

  0
STYLE
  5
72
330
70
100
AcDbSymbolTableRecord
100
AcDbTextStyleTableRecord
  2
ANNOTATIVE
 70
     0
 40
0.0
 41
1.0
 50
0.0
 71
     0
 42
2.5
  3
arial.ttf
  4

  0
ENDTAB
  0
TABLE
  2
VIEW
  5
73
330
0
100
AcDbSymbolTable
 70
     0
  0
ENDTAB
  0
TABLE
  2
UCS
  5
74
330
0
100
AcDbSymbolTable
 70
     0
  0
ENDTAB
  0
TABLE
  2
APPID
  5
75
330
0
100
AcDbSymbolTable
 70
     2
  0
APPID
  5
76
330
75
100
AcDbSymbolTableRecord
100
AcDbRegAppTableRecord
  2
ACAD
 70
     0
  0
APPID
  5
77
330
75
100
AcDbSymbolTableRecord
100
AcDbRegAppTableRecord
  2
ACADANNOTATIVE
 70
     0
  0
ENDTAB
  0
TABLE
  2
DIMSTYLE
  5
78
330
0
100
AcDbSymbolTable
 70
     2
  0
DIMSTYLE
105
79
330
78
100
AcDbSymbolTableRecord
100
AcDbDimStyleTableRecord
  2
STANDARD
 70
     0
  3

  4

  5

  6

  7

 40
0.0
 41
2.5
 42
0.625
 43
3.75
 44
1.25
 45
0.0
 46
0.0
 47
0.0
 48
0.0
140
2.5
141
2.5
142
0.0
143
0.03937007874016
144
1.0
145
0.0
146
1.0
147
0.625
 71
     0
 72
     0
 73
     0
 74
     0
 75
     0
 76
     0
 77
     1
 78
     8
170
     0
171
     3
172
     1
173
     0
174
     0
175
     0
176
     0
177
     0
178
     0
270
     2
271
     2
272
     2
273
     2
274
     3
340
71
275
     0
280
     0
281
     0
282
     0
283
     0
284
     8
285
     0
286
     0
287
     3
288
     0
  0
ENDTAB
  0
TABLE
  2
BLOCK_RECORD
  5
A01
330
0
100
AcDbSymbolTable
  70
5
  0
BLOCK_RECORD
  5
A02
330
A01
100
AcDbSymbolTableRecord
100
AcDbBlockTableRecord
  2
*MODEL_SPACE
  0
BLOCK_RECORD
  5
A03
330
A01
100
AcDbSymbolTableRecord
100
AcDbBlockTableRecord
  2
*PAPER_SPACE
  0
ENDTAB
  0
ENDSEC
  0
SECTION
  2
BLOCKS
  0
BLOCK
  5
A04
330
A02
100
AcDbEntity
  8
0
100
AcDbBlockBegin
  2
*MODEL_SPACE
 70
   0
 10
0
 20
0
 30
0
  3
*MODEL_SPACE
  1
 
  0
ENDBLK
  5
A05
330
A02
100
AcDbEntity
  8
0
100
AcDbBlockEnd
  0
BLOCK
  5
A06
330
A03
100
AcDbEntity
 67
1
  8
0
100
AcDbBlockBegin
  2
*PAPER_SPACE
 70
   0
 10
0
 20
0
 30
0
  3
*PAPER_SPACE
  1
 
  0
ENDBLK
  5
A07
330
A03
100
AcDbEntity
 67
    1
  8
0
100
AcDbBlockEnd
  0
ENDSEC
  0
SECTION
  2
ENTITIES
  0
LINE
  5
A08
330
A02
100
AcDbEntity
  8
Line
100
AcDbLine
 10
1.32899
 20
-25.3651
 30
0
 11
2.65488
 21
-25.2605
 31
0
  0
LINE
  5
A09
330
A02
100
AcDbEntity
  8
Line001
100
AcDbLine
 10
2.65488
 20
-25.2605
 30
0
 11
3.9734
 21
-25.0872
 31
0
  0
LINE
  5
A0A
330
A02
100
AcDbEntity
  8
Line002
100
AcDbLine
 10
3.9734
 20
-25.0872
 30
0
 11
20.0434
 21
-22.1467
 31
0
  0
LINE
  5
A0B
330
A02
100
AcDbEntity
  8
Line003
100
AcDbLine
 10
20.0434
 20
-22.1467
 30
0
 11
21.0119
 21
-21.9142
 31
0
  0
LINE
  5
A0C
330
A02
100
AcDbEntity
  8
Line004
100
AcDbLine
 10
21.0119
 20
-21.9142
 30
0
 11
21.9328
 21
-21.5328
 31
0
  0
LINE
  5
A0D
330
A02
100
AcDbEntity
  8
Line005
100
AcDbLine
 10
21.9328
 20
-21.5328
 30
0
 11
22.7823
 21
-21.0119
 31
0
  0
LINE
  5
A0E
330
A02
100
AcDbEntity
  8
Line006
100
AcDbLine
 10
22.7823
 20
-21.0119
 30
0
 11
23.54
 21
-20.365
 31
0
  0
LINE
  5
A0F
330
A02
100
AcDbEntity
  8
Line007
100
AcDbLine
 10
23.54
 20
-20.365
 30
0
 11
24.1869
 21
-19.6073
 31
0
  0
LINE
  5
A10
330
A02
100
AcDbEntity
  8
Line008
100
AcDbLine
 10
24.1869
 20
-19.6073
 30
0
 11
24.7078
 21
-18.7578
 31
0
  0
LINE
  5
A11
330
A02
100
AcDbEntity
  8
Line009
100
AcDbLine
 10
24.7078
 20
-18.7578
 30
0
 11
25.0892
 21
-17.8369
 31
0
  0
LINE
  5
A12
330
A02
100
AcDbEntity
  8
Line010
100
AcDbLine
 10
25.0892
 20
-17.8369
 30
0
 11
25.3217
 21
-16.8684
 31
0
  0
LINE
  5
A13
330
A02
100
AcDbEntity
  8
Line011
100
AcDbLine
 10
25.3217
 20
-16.8684
 30
0
 11
25.4
 21
-15.875
 31
0
  0
LINE
  5
A14
330
A02
100
AcDbEntity
  8
Line012
100
AcDbLine
 10
25.4
 20
-15.875
 30
0
 11
25.4
 21
-9.77886
 31
0
  0
LINE
  5
A15
330
A02
100
AcDbEntity
  8
Line013
100
AcDbLine
 10
25.4
 20
-9.77886
 30
0
 11
18.7958
 21
-9.77886
 31
0
  0
LINE
  5
A16
330
A02
100
AcDbEntity
  8
Line014
100
AcDbLine
 10
18.7958
 20
-9.77886
 30
0
 11
18.7958
 21
9.77886
 31
0
  0
LINE
  5
A17
330
A02
100
AcDbEntity
  8
Line015
100
AcDbLine
 10
18.7958
 20
9.77886
 30
0
 11
25.4
 21
9.77886
 31
0
  0
LINE
  5
A18
330
A02
100
AcDbEntity
  8
Line016
100
AcDbLine
 10
25.4
 20
9.77886
 30
0
 11
25.4
 21
15.875
 31
0
  0
LINE
  5
A19
330
A02
100
AcDbEntity
  8
Line017
100
AcDbLine
 10
25.4
 20
15.875
 30
0
 11
25.3217
 21
16.8684
 31
0
  0
LINE
  5
A1A
330
A02
100
AcDbEntity
  8
Line018
100
AcDbLine
 10
25.3217
 20
16.8684
 30
0
 11
25.0892
 21
17.8369
 31
0
  0
LINE
  5
A1B
330
A02
100
AcDbEntity
  8
Line019
100
AcDbLine
 10
25.0892
 20
17.8369
 30
0
 11
24.7078
 21
18.7578
 31
0
  0
LINE
  5
A1C
330
A02
100
AcDbEntity
  8
Line020
100
AcDbLine
 10
24.7078
 20
18.7578
 30
0
 11
24.1869
 21
19.6073
 31
0
  0
LINE
  5
A1D
330
A02
100
AcDbEntity
  8
Line021
100
AcDbLine
 10
24.1869
 20
19.6073
 30
0
 11
23.54
 21
20.365
 31
0
  0
LINE
  5
A1E
330
A02
100
AcDbEntity
  8
Line022
100
AcDbLine
 10
23.54
 20
20.365
 30
0
 11
22.7823
 21
21.0119
 31
0
  0
LINE
  5
A1F
330
A02
100
AcDbEntity
  8
Line023
100
AcDbLine
 10
22.7823
 20
21.0119
 30
0
 11
21.9328
 21
21.5328
 31
0
  0
LINE
  5
A20
330
A02
100
AcDbEntity
  8
Line024
100
AcDbLine
 10
21.9328
 20
21.5328
 30
0
 11
21.0119
 21
21.9142
 31
0
  0
LINE
  5
A21
330
A02
100
AcDbEntity
  8
Line025
100
AcDbLine
 10
21.0119
 20
21.9142
 30
0
 11
20.0434
 21
22.1467
 31
0
  0
LINE
  5
A22
330
A02
100
AcDbEntity
  8
Line026
100
AcDbLine
 10
20.0434
 20
22.1467
 30
0
 11
3.9734
 21
25.0872
 31
0
  0
LINE
  5
A23
330
A02
100
AcDbEntity
  8
Line027
100
AcDbLine
 10
3.9734
 20
25.0872
 30
0
 11
2.65488
 21
25.2605
 31
0
  0
LINE
  5
A24
330
A02
100
AcDbEntity
  8
Line028
100
AcDbLine
 10
2.65488
 20
25.2605
 30
0
 11
1.32899
 21
25.3651
 31
0
  0
LINE
  5
A25
330
A02
100
AcDbEntity
  8
Line029
100
AcDbLine
 10
1.32899
 20
25.3651
 30
0
 11
0
 21
25.4
 31
0
  0
LINE
  5
A26
330
A02
100
AcDbEntity
  8
Line030
100
AcDbLine
 10
0
 20
25.4
 30
0
 11
-22.225
 21
25.4
 31
0
  0
LINE
  5
A27
330
A02
100
AcDbEntity
  8
Line031
100
AcDbLine
 10
-22.225
 20
25.4
 30
0
 11
-23.2184
 21
25.3217
 31
0
  0
LINE
  5
A28
330
A02
100
AcDbEntity
  8
Line032
100
AcDbLine
 10
-23.2184
 20
25.3217
 30
0
 11
-24.1869
 21
25.0892
 31
0
  0
LINE
  5
A29
330
A02
100
AcDbEntity
  8
Line033
100
AcDbLine
 10
-24.1869
 20
25.0892
 30
0
 11
-25.1078
 21
24.7078
 31
0
  0
LINE
  5
A2A
330
A02
100
AcDbEntity
  8
Line034
100
AcDbLine
 10
-25.1078
 20
24.7078
 30
0
 11
-25.9573
 21
24.1869
 31
0
  0
LINE
  5
A2B
330
A02
100
AcDbEntity
  8
Line035
100
AcDbLine
 10
-25.9573
 20
24.1869
 30
0
 11
-26.715
 21
23.54
 31
0
  0
LINE
  5
A2C
330
A02
100
AcDbEntity
  8
Line036
100
AcDbLine
 10
-26.715
 20
23.54
 30
0
 11
-27.3619
 21
22.7823
 31
0
  0
LINE
  5
A2D
330
A02
100
AcDbEntity
  8
Line037
100
AcDbLine
 10
-27.3619
 20
22.7823
 30
0
 11
-27.8828
 21
21.9328
 31
0
  0
LINE
  5
A2E
330
A02
100
AcDbEntity
  8
Line038
100
AcDbLine
 10
-27.8828
 20
21.9328
 30
0
 11
-28.2642
 21
21.0119
 31
0
  0
LINE
  5
A2F
330
A02
100
AcDbEntity
  8
Line039
100
AcDbLine
 10
-28.2642
 20
21.0119
 30
0
 11
-34.1014
 21
3.87379
 31
0
  0
LINE
  5
A30
330
A02
100
AcDbEntity
  8
Line040
100
AcDbLine
 10
-34.1014
 20
3.87379
 30
0
 11
-34.7165
 21
1.98011
 31
0
  0
LINE
  5
A31
330
A02
100
AcDbEntity
  8
Line041
100
AcDbLine
 10
-34.7165
 20
1.98011
 30
0
 11
-34.925
 21
-2.22045e-16
 31
0
  0
LINE
  5
A32
330
A02
100
AcDbEntity
  8
Line042
100
AcDbLine
 10
-34.925
 20
0
 30
0
 11
-34.7165
 21
-1.98011
 31
0
  0
LINE
  5
A33
330
A02
100
AcDbEntity
  8
Line043
100
AcDbLine
 10
-34.7165
 20
-1.98011
 30
0
 11
-34.1014
 21
-3.87379
 31
0
  0
LINE
  5
A34
330
A02
100
AcDbEntity
  8
Line044
100
AcDbLine
 10
-34.1014
 20
-3.87379
 30
0
 11
-28.2642
 21
-21.0119
 31
0
  0
LINE
  5
A35
330
A02
100
AcDbEntity
  8
Line045
100
AcDbLine
 10
-28.2642
 20
-21.0119
 30
0
 11
-27.8828
 21
-21.9328
 31
0
  0
LINE
  5
A36
330
A02
100
AcDbEntity
  8
Line046
100
AcDbLine
 10
-27.8828
 20
-21.9328
 30
0
 11
-27.3619
 21
-22.7823
 31
0
  0
LINE
  5
A37
330
A02
100
AcDbEntity
  8
Line047
100
AcDbLine
 10
-27.3619
 20
-22.7823
 30
0
 11
-26.715
 21
-23.54
 31
0
  0
LINE
  5
A38
330
A02
100
AcDbEntity
  8
Line048
100
AcDbLine
 10
-26.715
 20
-23.54
 30
0
 11
-25.9573
 21
-24.1869
 31
0
  0
LINE
  5
A39
330
A02
100
AcDbEntity
  8
Line049
100
AcDbLine
 10
-25.9573
 20
-24.1869
 30
0
 11
-25.1078
 21
-24.7078
 31
0
  0
LINE
  5
A3A
330
A02
100
AcDbEntity
  8
Line050
100
AcDbLine
 10
-25.1078
 20
-24.7078
 30
0
 11
-24.1869
 21
-25.0892
 31
0
  0
LINE
  5
A3B
330
A02
100
AcDbEntity
  8
Line051
100
AcDbLine
 10
-24.1869
 20
-25.0892
 30
0
 11
-23.2184
 21
-25.3217
 31
0
  0
LINE
  5
A3C
330
A02
100
AcDbEntity
  8
Line052
100
AcDbLine
 10
-23.2184
 20
-25.3217
 30
0
 11
-22.225
 21
-25.4
 31
0
  0
LINE
  5
A3D
330
A02
100
AcDbEntity
  8
Line053
100
AcDbLine
 10
-22.225
 20
-25.4
 30
0
 11
0
 21
-25.4
 31
0
  0
LINE
  5
A3E
330
A02
100
AcDbEntity
  8
Line054
100
AcDbLine
 10
0
 20
-25.4
 30
0
 11
1.32899
 21
-25.3651
 31
0
  0
CIRCLE
  5
A3F
330
A02
100
AcDbEntity
  8
Circle
100
AcDbCircle
 10
-22.225
 20
19.05
 40
1.016
  0
CIRCLE
  5
A40
330
A02
100
AcDbEntity
  8
Circle001
100
AcDbCircle
 10
-22.225
 20
-19.05
 40
1.016
  0
CIRCLE
  5
A41
330
A02
100
AcDbEntity
  8
Circle002
100
AcDbCircle
 10
0
 20
-12.7
 40
1.016
  0
CIRCLE
  5
A42
330
A02
100
AcDbEntity
  8
Circle003
100
AcDbCircle
 10
0
 20
12.7
 40
1.016
  0
CIRCLE
  5
A43
330
A02
100
AcDbEntity
  8
Circle004
100
AcDbCircle
 10
19.05
 20
15.875
 40
1.016
  0
CIRCLE
  5
A44
330
A02
100
AcDbEntity
  8
Circle005
100
AcDbCircle
 10
19.05
 20
-15.875
 40
1.016
  0
CIRCLE
  5
A45
330
A02
100
AcDbEntity
  8
Circle006
100
AcDbCircle
 10
0
 20
0
 40
1.016
  0
CIRCLE
  5
A46
330
A02
100
AcDbEntity
  8
Circle007
100
AcDbCircle
 10
-25.4
 20
0
 40
1.016
  0
ENDSEC
  0
SECTION
  2
OBJECTS
  0
DICTIONARY
  5
F000
330
0
100
AcDbDictionary
  3
ACAD_GROUP
350
F001
  0
DICTIONARY
  5
F001
330
F000
100
AcDbDictionary
  0
ENDSEC
  0
EOF